<?xml version="1.0" standalone="no"?>
<!DOCTYPE svg PUBLIC "-//W3C//DTD SVG 1.1//EN" "http://www.w3.org/Graphics/SVG/1.1/DTD/svg11.dtd" >
<svg xmlns="http://www.w3.org/2000/svg">
<metadata>
Created by FontForge 20120731 at Mon Oct 17 10:02:07 2016
 By admin
</metadata>
<defs>
<font id="iconfont" horiz-adv-x="1024" >
  <font-face 
    font-family="iconfont"
    font-weight="500"
    font-stretch="normal"
    units-per-em="1024"
    panose-1="2 0 6 3 0 0 0 0 0 0"
    ascent="896"
    descent="-128"
    x-height="792"
    bbox="0 -221.615 1607 896"
    underline-thickness="50"
    underline-position="-100"
    unicode-range="U+0078-E8F0"
  />
<missing-glyph horiz-adv-x="374" 
d="M34 0v682h272v-682h-272zM68 34h204v614h-204v-614z" />
    <glyph glyph-name=".notdef" horiz-adv-x="374" 
d="M34 0v682h272v-682h-272zM68 34h204v614h-204v-614z" />
    <glyph glyph-name=".null" horiz-adv-x="0" 
 />
    <glyph glyph-name="nonmarkingreturn" horiz-adv-x="341" 
 />
    <glyph glyph-name="x" unicode="x" horiz-adv-x="1001" 
d="M281 543q-27 -1 -53 -1h-83q-18 0 -36.5 -6t-32.5 -18.5t-23 -32t-9 -45.5v-76h912v41q0 16 -0.5 30t-0.5 18q0 13 -5 29t-17 29.5t-31.5 22.5t-49.5 9h-133v-97h-438v97zM955 310v-52q0 -23 0.5 -52t0.5 -58t-10.5 -47.5t-26 -30t-33 -16t-31.5 -4.5q-14 -1 -29.5 -0.5
t-29.5 0.5h-32l-45 128h-439l-44 -128h-29h-34q-20 0 -45 1q-25 0 -41 9.5t-25.5 23t-13.5 29.5t-4 30v167h911zM163 247q-12 0 -21 -8.5t-9 -21.5t9 -21.5t21 -8.5q13 0 22 8.5t9 21.5t-9 21.5t-22 8.5zM316 123q-8 -26 -14 -48q-5 -19 -10.5 -37t-7.5 -25t-3 -15t1 -14.5
t9.5 -10.5t21.5 -4h37h67h81h80h64h36q23 0 34 12t2 38q-5 13 -9.5 30.5t-9.5 34.5q-5 19 -11 39h-368zM336 498v228q0 11 2.5 23t10 21.5t20.5 15.5t34 6h188q31 0 51.5 -14.5t20.5 -52.5v-227h-327z" />
    <glyph glyph-name="uniE607" unicode="&#xe607;" 
d="M492 524q-35 1 -64 -18.5t-34 -50.5l34 -77q12 -10 49.5 -32.5t49.5 -35.5h-197h-9q-22 0 -37 -15t-15 -36q0 -33 30 -47q-26 -14 -26 -44q0 -18 11 -32t28 -18q-12 -14 -12 -33q0 -22 15 -37t36 -15h2q-15 -15 -15 -36t15 -36t36 -15h101h126h1l45 45l112 14v-65h146
v396h-146v-50h-36q-9 33 -36 58t-59 41.5t-64 33.5t-56.5 43.5t-30.5 61.5zM371 529l-22 -23l78 -179h-127l-58 133q-74 -9 -127 35q-26 97 -3 187q4 1 12.5 4.5t13.5 5.5q6 -18 13.5 -38t17.5 -44.5t14 -37.5q71 -4 121 46q-42 109 -46 120q2 1 11 4t14 5q78 -51 123 -141
q-7 -42 -35 -77zM486 -76l21 -48q11 -18 38 -22.5t51.5 7t28.5 33.5l-13 30h-126z" />
    <glyph glyph-name="uniE611" unicode="&#xe611;" 
d="M939 757v-757h-86v184q-128 -56 -341 -56t-341 56v-184h-86v768h2q13 54 135 91t290 37t290 -37t135 -91h2v-11v0zM853 757q0 22 -96.5 38t-233.5 16t-234 -16t-97 -38t97 -37.5t234 -15.5t233.5 15.5t96.5 37.5zM853 674q-128 -55 -341 -55t-341 55v-183h28
q23 -19 114 -31t210 -12t210 12t114 31h6v183zM853 418q-128 -55 -341 -55t-341 55v-162h28q23 -18 114 -30.5t210 -12.5t210 12.5t114 30.5h6v162zM523 -43q119 0 210 12.5t114 30.5h90q-13 -54 -135 -91t-290 -37t-290 37t-135 91h112q23 -18 114 -30.5t210 -12.5z" />
    <glyph glyph-name="uniE612" unicode="&#xe612;" 
d="M1008 105l-117 199q-12 21 -37.5 36t-50.5 15h-130q73 125 73 179q0 95 -68.5 162.5t-165.5 67.5t-165.5 -67.5t-68.5 -162.5q0 -54 73 -180v1h-130q-25 0 -50.5 -15t-37.5 -36l-117 -199q-25 -42 -8 -71.5t65 -29.5h878q48 0 65 29.5t-8 71.5zM512 726q81 0 138 -56.5
t57 -135.5q0 -37 -42 -117.5t-89.5 -144.5t-63.5 -64t-63.5 64t-89.5 144.5t-42 117.5q0 79 57 135.5t138 56.5zM951 62h-878q-14 0 -14 0.5t7 12.5l117 200q5 7 17 14t21 7h166h-1v1q40 -62 76 -104.5t50 -42.5q13 0 49 42.5t76 104.5v-1h166q9 0 21 -7t17 -14l117 -200
l7 -13h-14zM359 341v-1l1 -1l-1 1v1zM368 326q1 -1 1 -2q0 1 -1 2zM377 312q0 -1 1 -3q0 1 -0.5 1.5t-0.5 1.5zM665 341l-1 -1v-1v1zM656 326q-1 -1 -1 -2q0 1 1 2zM647 312l-1 -1q0 -1 -1 -2q1 2 2 3zM609 534q0 40 -28.5 68t-68.5 28t-69 -28t-29 -68t29 -68t69 -28
t68.5 28t28.5 68zM453 534q0 24 17.5 40.5t41.5 16.5t41 -16.5t17 -40.5t-17 -41t-41 -17t-41.5 17t-17.5 41z" />
    <glyph glyph-name="uniE614" unicode="&#xe614;" 
d="M382 766h-145q-44 0 -76 -31.5t-32 -75.5v-146q0 -43 32 -74t76 -31h250v251q0 44 -30.5 75.5t-74.5 31.5zM435 461h-198q-22 0 -38.5 15t-16.5 37v146q0 22 16.5 38t38.5 16h145q22 0 37.5 -16t15.5 -38v-198zM790 766h-145q-44 0 -76 -31.5t-32 -75.5v-251h253
q44 0 74.5 30.5t30.5 74.5v146q0 44 -30.5 75.5t-74.5 31.5zM790 461h-201v198q0 22 16.5 38t39.5 16h145q22 0 37 -16t15 -38v-146q0 -22 -15 -37t-37 -15zM129 251v-145q0 -44 32 -75t76 -31h145q44 0 74.5 31t30.5 75v252h-250q-44 0 -76 -31.5t-32 -75.5zM435 106
q0 -22 -15.5 -37t-37.5 -15h-145q-22 0 -38.5 15t-16.5 37v145q0 22 16.5 38.5t38.5 16.5h198v-200zM790 358h-253v-252q0 -44 31.5 -75t76.5 -31h145q44 0 74.5 31t30.5 75v145q0 44 -30.5 75.5t-74.5 31.5z" />
    <glyph glyph-name="uniE615" unicode="&#xe615;" 
d="M429 -36q-100 0 -185.5 21t-135 56.5t-49.5 76.5v3v4v3v90q51 -49 150.5 -79.5t219.5 -30.5q64 0 124 9q2 21 7 42q-63 -10 -131 -10q-100 0 -185.5 21t-135 56.5t-49.5 76.5v10v90q51 -49 150.5 -79.5t219.5 -30.5t219.5 30.5t150.5 79.5v-48h10q16 0 31 -2v372
q-23 70 -140.5 117t-270.5 47t-270.5 -47t-140.5 -117v-637q24 -72 140 -121t271 -47q95 1 178 20q-16 21 -25 38q-73 -14 -153 -14zM429.5 848q100.5 0 185.5 -20.5t134.5 -56t49.5 -77.5t-49.5 -77.5t-134.5 -56t-185.5 -20.5t-186 20.5t-135 56t-49.5 77.5t49.5 77.5
t135 56t186 20.5zM59 498v111q51 -50 150.5 -80t219.5 -30t219.5 30t150.5 80v-111v-10q0 -41 -49.5 -76.5t-134.5 -56.5t-185.5 -21t-186 21t-135 56.5t-49.5 76.5v10zM799 314q-85 0 -145 -60.5t-60 -145.5t60 -145t145 -60t145.5 60t60.5 145t-60.5 145.5t-145.5 60.5z
M799 -56q-68 0 -116 48t-48 116t48 116.5t116 48.5t116.5 -48.5t48.5 -116.5t-48.5 -116t-116.5 -48zM820 211h-41v-82h-83v-41h83v-83h41v83h82v41h-82v82z" />
    <glyph glyph-name="uniE616" unicode="&#xe616;" 
d="M814 768h-46v-63h29q41 0 69.5 -29t28.5 -70v-504q0 -41 -28.5 -70t-69.5 -29h-570q-41 0 -70 29t-29 70v504q0 41 29 70t70 29h29v63h-47q-60 0 -102.5 -42.5t-42.5 -102.5v-541q0 -60 42.5 -102.5t102.5 -42.5h605q60 0 102.5 42.5t42.5 102.5v541q0 60 -42.5 102.5
t-102.5 42.5zM640 704v128h-256v-128h-64v-64h64h256h64v64h-64zM448 704v64h128v-64h-128zM256 512h256v-64h-256v64zM256 384h512v-64h-512v64zM256 256h512v-64h-512v64z" />
    <glyph glyph-name="uniE617" unicode="&#xe617;" 
d="M382 548q-6 0 -11 -4.5t-5 -11.5v-590q0 -6 5 -11t11.5 -5t11 5t4.5 11v590q0 7 -4.5 11.5t-11.5 4.5zM89 304q-6 0 -11 -5t-5 -11v-346q0 -6 5 -11t11.5 -5t11 5t4.5 11v346q0 6 -4.5 11t-11.5 5zM968 504q-6 0 -11 -5t-5 -11v-546q0 -6 5 -11t11.5 -5t11.5 5t5 11v546
q0 6 -5 11t-12 5zM963 686q7 0 11.5 5t4.5 11l-1 105q0 7 -5 11.5t-12 4.5l-104 -9q-7 -1 -11.5 -6t-4 -11.5t6 -11t11.5 -3.5l64 5l-247 -272l-283 277q-11 11 -22 1l-292 -267q-12 -11 -1 -23t23 -1l280 257l284 -278q5 -5 11 -5h1q7 0 11 5l258 285l1 -64q0 -7 5 -11.5
t11 -4.5v0zM675 304q-6 0 -11 -4.5t-5 -11.5v-346q0 -6 5 -11t11.5 -5t11 5t4.5 11v346q0 7 -4.5 11.5t-11.5 4.5z" />
    <glyph glyph-name="uniE61E" unicode="&#xe61e;" 
d="M392 33q-15 41 -56 54q-13 4 -27 4t-27 -4q-41 -13 -57 -54q-3 -8 -4 -17q-2 -8 -2 -15l1 -2q0 -37 26 -62.5t62.5 -25.5t62.5 25.5t27 62.5v1v1q0 7 -1 15q-2 9 -5 17zM925 116v128q0 27 -7 53t-15.5 42.5t-20 30.5t-16.5 19t-8 7q-5 4 -10 4h-137q-8 0 -13 -6v-282
q0 -4 -3 -8h-1v-1q-3 -3 -7 -3h-325q11 -5 19 -13q26 -22 35 -54q3 -8 4 -17q1 -8 1 -15v-1v-1h249v1v1q0 7 1 15q2 9 4 17q9 32 35 54h1h-1q12 11 27 17q11 5 22 8q12 2 23.5 2t22.5 -2q12 -3 23 -8q15 -7 27 -17q25 -22 35 -54q2 -8 3 -17q1 -8 1 -15v-2h19q7 0 12 5t5 12
v88q0 7 -5 12zM866 33q-16 41 -57 54q-13 4 -27 4t-27 -4q-41 -13 -56 -54q-3 -8 -5 -17q-1 -8 -1 -15v-1v-1q1 -37 27 -62.5t62.5 -25.5t62.5 25.5t27 62.5v1v1q0 7 -2 15q-1 9 -4 17zM659 122v1h17v326v2v50q0 8 -5 13t-12 5h-229q9 -31 9 -63q0 -89 -63 -152t-152 -63
q-62 0 -114 33v-151h17v-1h532zM236 87q9 8 19 13q3 2 8 4h1v1h-120v-1v-88q0 -7 5 -12t12 -5h36v1v1q0 7 1 15q1 9 4 17q9 32 34 54zM142 322l20 21q5 -3 16 -7t12 -4v-30q0 -7 6 -12t13 -5h34q8 0 14 5t6 12v30q1 0 11.5 4t15.5 7l21 -21q12 -12 24 0l24 24q5 5 5 12.5
t-5 12.5l-21 20q3 5 7 15.5t4 11.5h30q7 0 12 6t5 14v34q0 7 -5 13t-12 6h-30q0 1 -4 12t-7 16l21 21q12 11 0 23l-24 24q-5 5 -12.5 5t-12.5 -5l-20 -21q-5 3 -15.5 7.5t-11.5 4.5v30q0 7 -6 12t-14 5h-34q-7 0 -13 -5t-6 -12v-30q-1 0 -12 -4.5t-16 -7.5l-20 21
q-12 12 -24 0l-24 -24q-5 -5 -5 -12t5 -12l21 -20q-3 -5 -7 -16t-5 -12h-30q-7 0 -12 -6t-5 -13v-34q0 -8 5 -14t12 -6h30q1 -1 5 -11.5t7 -15.5l-21 -21q-12 -12 0 -24l24 -24q5 -5 12 -5t12 5zM226 532q32 0 54.5 -22.5t22.5 -54.5t-22.5 -54.5t-54.5 -22.5t-54.5 22.5
t-22.5 54.5t22.5 54.5t54.5 22.5z" />
    <glyph glyph-name="uniE622" unicode="&#xe622;" 
d="M362 477h300v-77h-300v77zM362 605h300v-77h-300v77zM362 349h172v-77h-172v77zM896 226l-26 45q-3 -1 -9.5 -2.5t-23 -1t-30 5.5t-26.5 20t-18 39h-52q-1 -2 -1.5 -5t-4 -12t-8 -15.5t-13 -15.5t-19.5 -12t-26.5 -5.5t-34.5 4.5l-28 -46q3 -2 7.5 -6t13 -16t11.5 -25.5
t-4.5 -33t-27.5 -38.5l28 -46q3 1 8.5 3t21 2.5t28.5 -3.5t27 -20t21 -42h53q0 2 1 5t4.5 11.5t8.5 15.5t13 16t19 12t26.5 5.5t34.5 -4.5q25 44 26 44q-3 2 -7.5 6.5t-12.5 18t-10.5 27t4.5 33t26 36.5zM736 105q-26 0 -44 18t-18 43t18 43t43.5 18t43.5 -18t18 -43
t-18 -43t-43 -18zM736 105zM307 76q-21 0 -36 15t-15 37v512q0 22 15 37t36 15h410q21 0 36 -15t15 -37v-272h64v336q0 27 -18.5 45.5t-45.5 18.5h-512q-27 0 -45.5 -18.5t-18.5 -45.5v-640q0 -27 18.5 -45.5t45.5 -18.5h294v76h-243z" />
    <glyph glyph-name="uniE623" unicode="&#xe623;" 
d="M404 20q-64 32 -136 41q1 8 4 34q18 11 19 25q1 13 4 32q2 -2 5 -3q9 -1 10 9l5 49q1 9 -8 10q-2 0 -5 -1q0 5 1 14t2 14l1 6v10v10q0 6 -1 11t-3 11t-5.5 11t-8.5 10q-26 26 -73 26t-73 -26q-5 -5 -9 -10t-5.5 -11t-3 -11t-1.5 -11v-10q0 -4 0.5 -9.5t1.5 -6.5
q0 -4 1 -13.5t2 -14.5q-3 1 -5 1q-9 -1 -9 -10l5 -49q1 -10 10 -9q4 1 6 3q0 -2 4 -32q1 -14 18 -25q3 -17 5 -34q-73 -9 -137 -41q-10 -5 -16.5 -17.5t-5.5 -23.5q3 -26 5 -52q1 -11 9.5 -21t18.5 -12q179 -29 357 0q11 2 19 12t9 21q1 8 3 25.5t2 26.5q2 11 -5 23.5
t-17 17.5zM999 20q-64 32 -137 41q3 22 5 34q17 11 19 25q3 30 3 32q3 -2 6 -3q9 -1 10 9l5 49q1 9 -8 10q-3 0 -6 -1q3 19 4 28v8q1 7 1 10.5t-0.5 12t-2.5 14t-6 12.5t-9 12q-27 26 -74 26t-73 -26q-5 -5 -8.5 -10t-5.5 -11t-3 -11t-1 -11v-10q0 -4 0.5 -9.5t0.5 -6.5
q3 -23 3 -28q-2 1 -5 1q-9 -1 -8 -10l5 -49q1 -10 10 -9q3 1 5 3q2 -10 4 -32q1 -14 19 -25q3 -25 5 -34q-73 -9 -137 -41q-10 -5 -16.5 -17.5t-5.5 -23.5q3 -35 5 -52q1 -11 9 -21t19 -12q178 -29 357 0q10 2 18.5 12t9.5 21q4 38 5 52q1 11 -5.5 23.5t-16.5 17.5zM701 570
q-64 31 -136 40q1 9 4 35q18 11 19 25q1 4 2 15t2 17q2 -3 6 -3q9 -1 9 8l5 49q1 9 -8 10q-2 1 -5 -1q2 16 3 28q0 1 0.5 7t1 9t0 9.5t-1.5 11.5t-3 11t-5.5 11.5t-8.5 9.5q-26 27 -73 27t-73 -27q-5 -4 -8.5 -9.5t-5.5 -11.5t-3 -11t-1 -12v-9q0 -3 0.5 -9t0.5 -7
q0 -4 1.5 -13.5t1.5 -14.5q-2 2 -5 1q-9 -1 -8 -10l5 -49q1 -9 10 -8q3 0 5 3q1 -6 2.5 -17.5t1.5 -14.5q1 -14 19 -25q3 -23 4 -35q-72 -9 -136 -40q-11 -6 -17.5 -18.5t-5.5 -23.5q3 -27 6 -52q1 -11 9 -20.5t19 -11.5q178 -30 357 0q10 2 18 11.5t10 20.5q3 34 5 52
q1 11 -5.5 23.5t-17.5 18.5zM654 150l-116 68v137q0 11 -7.5 19t-18.5 8t-18.5 -8t-7.5 -19v-137l-116 -68q-9 -6 -11.5 -16.5t2.5 -19.5q7 -14 22 -14q7 0 13 4l116 68l116 -68q6 -4 13 -4q15 0 22 14q6 9 3 19.5t-12 16.5z" />
    <glyph glyph-name="uniE625" unicode="&#xe625;" 
d="M727 245q-37 0 -63.5 -26.5t-26.5 -64t26.5 -64t64 -26.5t64 26.5t26.5 64t-26.5 64t-64.5 26.5zM727 110q-18 0 -31 13t-13 31.5t13 31.5t31.5 13t31.5 -13t13 -32q0 -18 -13 -31t-32 -13zM967 202q-2 13 -10 21t-19 8h-2q-22 0 -37 15.5t-15 36.5q0 8 5 19q5 12 1 25
t-16 21l-59 33q-7 3 -16 3q-17 0 -29 -12q-23 -23 -41 -23q-9 0 -21.5 8t-19.5 16q-11 12 -29 12q-7 0 -15 -3h-1l-61 -34l-1 -1q-11 -7 -14.5 -20t1.5 -25q5 -14 5 -19q0 -21 -15 -36.5t-36 -15.5h-3q-11 0 -19 -8t-10 -21q-5 -41 -5 -48t5 -48q2 -13 10 -21t19 -8h3
q21 0 36 -15t15 -36q0 -8 -4 -20q-6 -12 -2 -25t15 -21l59 -33q7 -3 15 -3q18 0 29 12q8 8 20.5 17t21.5 9q19 0 42 -26q12 -13 30 -13q7 0 16 4l59 33l2 1q10 7 14 20t-1 25q-5 14 -5 19q0 21 15 36t36 15h3q11 0 18.5 8.5t10.5 21.5v2q0 1 0.5 4t1 6.5t1.5 8t1 9t0.5 9
t0.5 9.5q0 9 -5 48zM923 123q-37 -5 -61.5 -33t-24.5 -64q0 -13 5 -30l-43 -24q-11 10 -17 15q-29 22 -55 22t-54 -21q-7 -5 -18 -15l-41 23q5 14 5 30q0 37 -24.5 64.5t-60.5 32.5q-3 21 -3 31t3 32q36 4 60.5 32t24.5 65q0 12 -5 29l44 25q10 -9 18 -15q28 -20 54 -20
q25 0 53 20q11 8 17 14l43 -24q-5 -14 -5 -29q0 -37 24 -65t61 -32q3 -23 3 -32q-1 -17 -3 -31zM112 -10v51q0 131 88.5 227t218.5 108v0q14 1 32 1h4q90 7 126 39l15 12q43 33 66.5 81t23.5 102q0 97 -69 165.5t-166 68.5t-166 -68.5t-69 -165.5q0 -54 23.5 -102t66.5 -81
l15 -12l-18 -7q-114 -45 -182.5 -145.5t-68.5 -222.5v-81q0 -13 8.5 -21.5t21.5 -8.5h443q-22 27 -37 60h-376v0zM276 611q0 72 51.5 122.5t123.5 50.5t123 -50.5t51 -122.5t-51 -122.5t-123 -50.5t-123.5 50.5t-51.5 122.5zM276 611z" />
    <glyph glyph-name="uniE626" unicode="&#xe626;" 
d="M410 817h-315q-13 0 -22 -9.5t-9 -22.5v-333q0 -13 9 -22t22 -9h315q13 0 22 9t9 22v333q0 13 -9 22.5t-22 9.5zM378 484h-251v270h251v-270zM410 313h-315q-13 0 -22 -9t-9 -22v-315q0 -13 9 -22.5t22 -9.5h315q13 0 22 9.5t9 22.5v315q0 13 -9 22t-22 9zM378 -2h-251
v252h251v-252zM913 313h-314q-13 0 -22.5 -9t-9.5 -22v-315q0 -13 9.5 -22.5t22.5 -9.5h314q13 0 22.5 9.5t9.5 22.5v315q0 13 -9.5 22t-22.5 9zM882 -2h-252v252h252v-252zM999 648l-223 222q-9 10 -22 10t-22 -10l-223 -222q-9 -9 -9 -22t9 -23l223 -222q9 -9 22 -9t22 9
l223 222q9 10 9 23t-9 22zM754 448l-178 178l178 178l178 -178z" />
    <glyph glyph-name="uniE628" unicode="&#xe628;" horiz-adv-x="1025" 
d="M666 -128q-30 0 -49 22q-18 21 -49.5 43.5t-58.5 22.5q-26 0 -57.5 -22.5t-49.5 -42.5q-18 -21 -48 -21q-13 0 -24 5l-2 1l-125 74l-2 1q-17 12 -22.5 34.5t2.5 42.5q12 27 12 54q0 58 -39 99.5t-94 41.5h-5h-1q-15 0 -27 13.5t-16 36.5q-11 60 -11 106t11 106
q4 23 16 37t28 14h5q55 0 94 41t39 99q0 28 -12 54q-8 21 -2.5 43t23.5 34l1 1l132 77l2 1q11 5 24 5q30 0 48 -21q19 -20 49.5 -41.5t56.5 -21.5t56 21t49 41q18 20 47 20q14 0 25 -5h1l128 -76l2 -1q17 -12 23 -34t-3 -43q-12 -27 -12 -54q0 -58 39.5 -99t94.5 -41h4
q16 0 28 -14t17 -37q10 -60 10 -106q0 -47 -10 -106q-5 -23 -17 -37t-28 -13h-4q-55 0 -94.5 -41.5t-39.5 -99.5q0 -25 12 -54q9 -20 3 -42.5t-23 -34.5l-2 -1l-130 -76l-1 -1q-11 -5 -24 -5zM662 -63q1 -1 4 -1l122 71q-17 40 -17 79q0 81 53.5 140.5t129.5 63.5
q10 55 10 93t-10 93q-76 4 -129.5 63.5t-53.5 140.5q0 39 17 79l-120 71h-1q-2 0 -4 -2q-19 -20 -45 -39q-55 -41 -103 -41q-49 0 -105 42q-25 19 -44 40q-2 1 -5 1l-124 -72q16 -40 16 -79q0 -81 -53.5 -140.5t-129.5 -63.5q-10 -55 -10 -93t10 -93q76 -4 129.5 -63.5
t53.5 -140.5q0 -39 -16 -79l117 -70q3 0 4 2q19 21 45 41q57 44 106 44q50 0 108 -45q26 -20 45 -42zM510 196q-73 0 -125 55t-52 132.5t52 132.5t125 55t125 -55t52 -132.5t-52 -132.5t-125 -55zM510 508q-49 0 -83 -36.5t-34 -87.5t34 -87.5t82.5 -36.5t83 36.5t34.5 87.5
t-34.5 87.5t-82.5 36.5z" />
    <glyph glyph-name="uniE62C" unicode="&#xe62c;" 
d="M870 838q-134 58 -358 58t-358 -58q-154 -67 -154 -153v-595q0 -45 39.5 -85.5t114.5 -68.5q128 -64 358 -64q224 0 358 58q72 28 113 69t41 84v602q0 86 -154 153zM813 576q-117 -45 -301 -45t-301 45q-141 38 -141 109q0 28 36.5 56t104.5 53q125 38 301 38
q155 0 301 -45q68 -24 104.5 -52t36.5 -57q0 -30 -35.5 -56.5t-105.5 -45.5zM819 390q-145 -44 -307 -44q-150 0 -307 44q-68 25 -104.5 53t-36.5 56v71q21 -9 55.5 -26t63.5 -28t60 -17q139 -32 269 -32t269 32q31 6 60 17t63.5 28t55.5 26v-77q0 -24 -37 -51.5t-104 -51.5
zM819 186q-145 -45 -307 -45q-150 0 -307 45q-68 19 -104.5 47t-36.5 61v96q9 -4 30 -14l30 -16q9 -4 26.5 -12.5t29.5 -13t29 -10.5t34 -10q139 -32 269 -32t269 32q20 5 37.5 11t39 15.5t30 13.5t38 19t34.5 17v-96q0 -33 -36.5 -61t-104.5 -47zM512 -64q-150 0 -307 45
q-67 19 -104 46t-37 56v96q9 -4 30 -15t30 -15t26.5 -12.5t29.5 -13t29 -10.5t34 -11q128 -32 263 -32q130 0 268 32q19 5 37.5 11t30 10.5t31 13t27 12t31 15.5t29.5 15v-96q0 -28 -36.5 -56t-104.5 -53q-125 -38 -307 -38zM512 -64z" />
    <glyph glyph-name="uniE631" unicode="&#xe631;" 
d="M418 198h-38h-64v63v168v63h64h157v63l104 -91l-105 -88l1 53h-157v-168h38v-63zM567 262q-14 -11 -49 -52q-46 -7 -78 -30q-11 -2 -15.5 -11.5t-3.5 -18.5q1 -8 7.5 -15t13.5 -10h48v4q0 15 11 26t26.5 11t26 -11t10.5 -26v-3h111v3q0 15 11 26t26.5 11t26.5 -11t11 -26
v-2l-1 -1h2q24 -1 27.5 21.5t-14.5 36.5q2 32 -4 55t-15 26q-49 13 -139 4v16q0 2 -3 3t-6 0t-4 -3v-17q-19 0 -26 -6zM527 162q14 0 24 -9.5t10 -23.5t-10 -24t-24 -10t-24 10t-10 24t10 23.5t24 9.5zM527 145q7 0 11.5 -5t4.5 -11.5t-4.5 -11t-11 -4.5t-11.5 4.5t-5 11
t5 11.5t11 5zM712 162q14 0 24 -9.5t10 -23.5t-10 -24t-24 -10t-23.5 10t-9.5 24t9.5 23.5t23.5 9.5zM712 145q7 0 11.5 -5t4.5 -11.5t-4.5 -11t-11 -4.5t-11.5 4.5t-5 11t5 11.5t11 5zM589 251q9 1 25 2v-44h-41h-25q1 9 17.5 25.5t23.5 16.5zM620 254q32 2 73 0v-45h-73
v45zM699 253h13q8 0 12 -1q8 0 14 -5.5t7 -14.5v-23h-46v44zM527.5 701q-106.5 0 -197.5 -53t-143.5 -143.5t-52.5 -197.5t52.5 -197.5t143.5 -143.5t197.5 -53t197.5 53t143.5 143.5t52.5 197.5t-52.5 197.5t-143.5 143.5t-197.5 53zM527.5 -24q-89.5 0 -165.5 44.5
t-120.5 120.5t-44.5 166t44.5 166t120.5 120.5t165.5 44.5t166 -44.5t120.5 -120.5t44 -166t-44 -166t-120.5 -120.5t-166 -44.5z" />
    <glyph glyph-name="uniE633" unicode="&#xe633;" 
d="M512 896q-139 0 -257 -68.5t-186.5 -186.5t-68.5 -257t68.5 -257t186.5 -186.5t257 -68.5t257 68.5t186.5 186.5t68.5 257t-68.5 257t-186.5 186.5t-257 68.5zM512 -77q-94 0 -179 36.5t-147 98.5t-98.5 147t-36.5 179t36.5 179t98.5 147t147 98.5t179 36.5t179 -36.5
t147 -98.5t98.5 -147t36.5 -179t-36.5 -179t-98.5 -147t-147 -98.5t-179 -36.5zM246 517l266 -317l266 317l-266 -102z" />
    <glyph glyph-name="uniE63C" unicode="&#xe63c;" 
d="M513 625q-84 0 -144 -59.5t-60 -143.5t60 -143.5t144 -59.5t143.5 59.5t59.5 143.5t-59.5 143.5t-143.5 59.5zM512.5 270q-62.5 0 -107 44.5t-44.5 107.5t44.5 107.5t107 44.5t107 -44.5t44.5 -107.5t-44.5 -107.5t-107 -44.5zM514 666q20 0 34 14t14 34t-14 34t-34 14
t-34 -14t-14 -34t14 -34t34 -14zM514 717q3 0 3 -3t-3 -3t-3 3t3 3zM865 616q-29 69 -82 122t-121 82q-72 30 -149.5 30t-149.5 -30q-68 -29 -121 -82t-82 -122q-30 -71 -30 -149t30 -149q29 -69 82 -122t121 -82q17 -7 34 -12l-58 -144h-17q-11 0 -18.5 -7.5t-7.5 -18.5
t7.5 -18.5t18.5 -7.5h352v0h36q11 0 18.5 7.5t7.5 18.5t-7.5 18.5t-18.5 7.5h-19l-57 146q37 12 70 31q87 51 139 138q52 89 52 194q0 78 -30 149zM636 -42h-241l53 131q32 -5 64 -5q36 0 72 7zM799 299q-45 -76 -121 -119q-76 -45 -166 -45q-137 0 -234 97.5t-97 234.5
t97 234.5t234.5 97.5t234.5 -97.5t97 -234.5q0 -91 -45 -168z" />
    <glyph glyph-name="uniE63F" unicode="&#xe63f;" 
d="M512 812q-104 0 -199 -40.5t-163.5 -109t-109 -163.5t-40.5 -199t40.5 -199t109 -163.5t163.5 -109t199 -40.5t199 40.5t163.5 109t109 163.5t40.5 199t-40.5 199t-109 163.5t-163.5 109t-199 40.5zM433 -75q-121 26 -204.5 118t-96.5 215q26 4 51 4.5t58 -5t60.5 -18
t54.5 -37.5t45 -60.5t27 -91t5 -125.5zM352 300q0 41 19.5 76.5t52.5 57.5h-271q41 110 139 179.5t220 69.5t220 -69.5t139 -179.5h-271q33 -22 52.5 -57.5t19.5 -76.5q0 -66 -47 -113t-113 -47t-113 47t-47 113zM591 -74q-4 69 5 124t27 90.5t45 61t54.5 38t60.5 18t58 5
t51 -4.5q-13 -123 -96.5 -215t-204.5 -117zM512 300zM385 300q0 53 37 90t90 37t90 -37t37 -90t-37 -90t-90 -37t-90 37t-37 90z" />
    <glyph glyph-name="uniE644" unicode="&#xe644;" 
d="M422 58q-57 28 -121 36q1 7 4 30q16 10 17 23q1 11 3 28q2 -2 5 -3q8 0 9 8l4 43q1 9 -7 9q-2 1 -5 0q1 4 2 12t1 12q3 7 1 28t-16 34q-23 23 -65 23t-65 -23q-14 -13 -16 -34t1 -28q0 -3 1 -11.5t2 -12.5q-3 1 -5 0q-8 0 -7 -9l4 -43q1 -8 9 -8q3 1 5 3q0 -2 3 -28
q2 -13 17 -23l4 -30q-64 -8 -121 -36q-9 -5 -15 -16t-5 -21q2 -22 5 -46q1 -10 8 -18.5t17 -10.5q158 -26 317 0q9 2 16 10.5t9 18.5q0 8 1.5 23t2.5 23q1 10 -5 21t-15 16v0zM422 58zM950 58q-57 28 -121 36q2 19 4 30q15 10 16 23q3 26 4 28q2 -2 5 -3q8 0 8 8l5 43
q1 9 -7 9q-2 1 -5 0l3 24q3 7 0.5 28t-15.5 34q-23 23 -65 23t-65 -23q-14 -13 -16 -34t1 -28q2 -21 3 -24q-3 1 -5 0q-8 0 -7 -9l4 -43q1 -8 9 -8q3 1 5 3q1 -14 3 -28q1 -13 17 -23q3 -22 4 -30q-65 -8 -121 -36q-10 -5 -15.5 -16t-4.5 -21q0 -5 2 -21t2 -25
q1 -10 8.5 -18.5t16.5 -10.5q159 -26 317 0q9 2 16.5 10.5t8.5 18.5q3 33 5 46q1 10 -5 21t-15 16v0zM950 58zM686 546q-57 27 -121 35q1 8 4 31q15 10 16 22q1 4 2 13.5t2 15.5q2 -2 5 -3q8 -1 8 7l5 44q1 8 -7 9q-3 0 -5 -1q2 15 3 25q3 6 0.5 27.5t-15.5 33.5
q-23 24 -65 24t-65 -24q-14 -12 -16 -33.5t1 -27.5q0 -4 1 -12.5t2 -12.5q-2 1 -5 1q-8 -1 -7 -9l4 -44q1 -8 9 -7q3 0 5 3q1 -6 2 -16t1 -13q1 -12 17 -22q3 -23 4 -31q-64 -8 -121 -35q-9 -5 -15 -16t-5 -21q2 -24 5 -46q1 -10 8 -19t16 -10q159 -27 317 0q10 1 17 9.5
t8 19.5q3 31 5 46q1 10 -5 21t-15 16zM686 546zM644 173l-103 61v121q0 10 -7 17t-16.5 7t-16 -7t-6.5 -17v-121l-103 -61q-8 -5 -10.5 -14.5t2.5 -17.5q6 -12 20 -12q6 0 11 3l103 61l103 -61q5 -3 11 -3q14 0 20 12q5 8 2.5 17.5t-10.5 14.5zM644 173z" />
    <glyph glyph-name="uniE645" unicode="&#xe645;" 
d="M515.5 -100q-81.5 0 -155.5 31q-72 31 -127.5 86.5t-85.5 126.5q-32 75 -32 156t32 156q30 71 85.5 126.5t127.5 86.5q74 31 155.5 31t155.5 -31q72 -31 127 -86.5t86 -126.5q31 -75 31 -156t-31 -156q-31 -71 -86 -126.5t-127 -86.5q-74 -31 -155.5 -31zM515.5 626
q-88.5 0 -163.5 -44t-118.5 -119t-43.5 -163t43.5 -163t118.5 -119t163.5 -44t163.5 44t118.5 119t43.5 163t-43.5 163t-118.5 119t-163.5 44zM552 663l1 -160h-75v160h74zM552 97l1 -160h-75v160h74zM312 337v-74h-159l-1 74h160zM878 338v-74h-159v74h159zM515 300z
M410 300q0 44 31 75t74.5 31t74.5 -31t31 -75t-31 -75t-74.5 -31t-74.5 31t-31 75z" />
    <glyph glyph-name="uniE64A" unicode="&#xe64a;" 
d="M346.5 501q13.5 0 23.5 10t10 23v133q0 14 -10 24t-23.5 10t-23.5 -10t-10 -24v-133q0 -13 10 -23t23.5 -10zM512.5 501q13.5 0 23.5 10t10 23v133q0 14 -10 24t-23.5 10t-23.5 -10t-10 -24v-133q0 -13 10 -23t23.5 -10zM413 637h33v-67h-33v67zM579 637h33v-67h-33v67z
M911 1v540q0 41 -29 70t-70 29h-67v-66h67q13 0 23 -9.5t10 -23.5v-540q0 -14 -10 -23.5t-23 -9.5h-599q-13 0 -23 9.5t-10 23.5v540q0 13 10 23t23 10h67v66h-67q-41 0 -70 -29t-29 -70v-540q0 -42 29 -71t70 -29h599q40 0 68.5 27.5t30.5 67.5v1v3v1v0zM679 501
q14 0 23.5 10t9.5 23v133q0 14 -9.5 24t-23.5 10t-23.5 -10t-9.5 -24v-133q0 -13 9.5 -23t23.5 -10zM313 368h398q14 0 24 9.5t10 23.5t-10 23.5t-24 9.5h-398q-14 0 -24 -9.5t-10 -23.5t10 -23.5t24 -9.5zM711 270h-398q-14 0 -24 -9.5t-10 -23.5t10 -23.5t24 -9.5h398
q14 0 24 9.5t10 23.5t-10 23.5t-24 9.5zM711 100h-398q-14 0 -24 -10t-10 -23.5t10 -23.5t24 -10h398q14 0 24 10t10 23.5t-10 23.5t-24 10z" />
    <glyph glyph-name="uniE64F" unicode="&#xe64f;" 
d="M547 134q-2 50 16 97.5t46 80t59.5 53.5t58.5 26q-18 21 -33 35.5t-51.5 40.5t-84.5 52q41 28 65 73t24 98q0 85 -59 145.5t-142 60.5t-141.5 -60.5t-58.5 -145.5q0 -55 26 -102t71 -74q-334 -135 -335 -544v-48v-45h735q-37 14 -68.5 34.5t-60.5 51.5t-46.5 75t-20.5 96
zM1019 116v35l-52 11q-2 11 -6 22l39 37l-17 30l-49 -17q-8 10 -17 18l15 50l-30 18l-33 -39q-11 4 -23 7l-12 50h-34l-10 -49q-13 -3 -25 -7l-34 37l-29 -18l15 -47q-10 -9 -18 -19l-47 14l-17 -30l37 -33q-5 -13 -7 -26l-48 -12v-35l49 -9q2 -13 7 -25l-37 -36l17 -30
l48 17q8 -10 18 -18l-15 -50l29 -18l35 40q11 -3 22 -5l12 -53h34l11 53q10 3 21 7l37 -40l29 17l-17 52q8 8 15 16l52 -16l17 30l-40 37q3 10 5 21zM818 2q-52 0 -89 38t-37 92t37 92t89 38t89 -38t37 -92t-37 -92t-89 -38zM914 -89q0 1 1 2q-5 -1 -7 -2h6z" />
    <glyph glyph-name="uniE651" unicode="&#xe651;" 
d="M699 768q-54 0 -103 -23.5t-84 -64.5q-35 41 -84 64.5t-103 23.5q-97 0 -163 -66.5t-66 -163.5q0 -26 5.5 -52t13.5 -48.5t25.5 -50.5t31 -48t41.5 -51.5t46.5 -51t56 -55.5t59.5 -56.5t68 -62.5q6 -5 9 -8l60 -54l60 54q4 3 9 8q46 42 68 62.5t59.5 56.5t56 55.5
t46.5 51t41.5 51.5t31 48t25.5 50.5t13.5 48.5t5.5 52q0 97 -66 163.5t-163 66.5zM538 109l-9 -7l-17 -16l-17 16l-9 7q-65 61 -98.5 92t-76.5 75t-70 77q-81 101 -81 185q0 71 47.5 118.5t117.5 47.5q39 0 75.5 -17.5t62.5 -47.5l49 -58l49 58q26 30 62.5 47.5t75.5 17.5
q70 0 117.5 -47.5t47.5 -118.5q0 -84 -81 -185q-27 -33 -70 -77t-76.5 -75t-98.5 -92z" />
    <glyph glyph-name="uniE654" unicode="&#xe654;" horiz-adv-x="1639" 
d="M1 783h1045v-625h-1045v625zM1424 783h-337v-625l61 -33q33 14 70 14q66 0 116 -42t61 -105l7 -4h205v398zM1178 411v290h164l121 -290h-285zM235 125h-235v-163h111q2 57 36.5 101.5t87.5 61.5zM452 -46q0 66 -47 112.5t-113.5 46.5t-114 -46.5t-47.5 -112.5
t47.5 -112.5t114 -46.5t113.5 46.5t47 112.5zM1067 125h-721q54 -17 88.5 -61.5t36.5 -101.5h570q0 50 26 92v71zM1380 -44q0 66 -47 112.5t-113.5 46.5t-113.5 -46.5t-47 -112.5t47 -112.5t113.5 -46.5t113.5 46.5t47 112.5z" />
    <glyph glyph-name="uniE657" unicode="&#xe657;" horiz-adv-x="1304" 
d="M1303 454l-161 242h-304v-443h233q19 0 32.5 14t13.5 33t-13.5 33t-32.5 14h-140v256h161l118 -177v-242h-442v577q0 21 -15 36t-36 15h-666q-21 0 -36 -15t-15 -36v-620q0 -21 15 -35.5t36 -14.5h142q-30 -49 -30 -105q0 -82 58 -140t140 -58t140 58t58 140
q0 56 -31 105h363q-30 -49 -30 -105q0 -82 58 -140t140 -58t140 58t58 140q0 56 -31 105h77v363zM93 719h582v-535h-582v535zM465 -14q0 -43 -30.5 -74t-74 -31t-74 31t-30.5 74t30.5 74t74 31t74 -31t30.5 -74zM1164 -14q0 -43 -31 -74t-74 -31t-74 31t-31 74t31 74t74 31
t74 -31t31 -74z" />
    <glyph glyph-name="uniE658" unicode="&#xe658;" 
d="M521 176l47 -49l-30 -32q-3 -2 -6 -7t-2 -19.5t14 -28.5l241 -249q1 -1 2.5 -2t7 -4t10.5 -4t13 0.5t15 6.5l120 122q3 3 5.5 8.5t1.5 20.5t-14 27l-238 245l-3 3q-2 2 -8 5t-12 4.5t-15 -0.5t-17 -8l-31 -33l-50 51zM488 319l-258 264v82l-152 93l-75 -76l91 -152h81
l254 -260zM72 -126v4q0 3 2.5 10t6.5 12.5t12 10t20 4.5q1 0 3.5 -0.5t9 -3t11.5 -6t9 -12t4 -19.5v-4q0 -2 -2.5 -8.5t-6 -12t-11.5 -9.5t-19 -5l-34 -35q2 -2 6 -5t15.5 -8.5t23 -7.5t28.5 2.5t33 18.5l459 512q6 -4 16 -10t43 -15.5t67 -8.5q3 -1 10 -0.5t26.5 3.5
t38.5 8.5t44 18.5t45 31q6 5 15 14t29.5 38.5t32 61.5t12 81.5t-19.5 99.5l-165 -165l-139 143l165 164q-5 3 -12.5 6.5t-33.5 9.5t-53 5.5t-67.5 -12.5t-79.5 -38q-3 -2 -8 -6t-19 -18.5t-25.5 -30.5t-24 -41.5t-18.5 -51.5q-2 -5 -3.5 -13.5t-3.5 -33.5t0.5 -49.5
t14.5 -58t32 -61.5l-516 -441q-1 -1 -3 -3.5t-7 -11t-7 -17t-3.5 -22.5t4.5 -27zM72 -126q0 -1 0.5 -4t3 -9.5t6.5 -11.5t11.5 -9.5t17.5 -4.5l-34 -35q-44 40 -48 61zM72 -126z" />
    <glyph glyph-name="uniE66F" unicode="&#xe66f;" 
d="M511.5 422q-25.5 0 -43.5 18t-18 43t18 43t43.5 18t43.5 -18t18 -43t-18 -43t-43.5 -18zM511 534q-21 0 -36 -15t-15 -36t15 -36t36 -15t36 15t15 36t-15 36t-36 15zM511 81l-4 5q-46 57 -92 130q-92 149 -92 239q0 83 55 142.5t133 59.5t133 -59q55 -60 55 -143
q0 -50 -29 -119q-23 -55 -63 -120q-46 -73 -92 -130zM511 647q-73 0 -125 -56.5t-52 -135.5q0 -87 90 -233q41 -66 87 -124q47 58 87 124q91 146 91 233q0 79 -52.5 135.5t-125.5 56.5zM956 -56h-889l160 291h130v-10h-124l-149 -271h855l-149 271h-124v10h130z" />
    <glyph glyph-name="uniE673" unicode="&#xe673;" 
d="M981 128h-341q-18 0 -30.5 12.5t-12.5 30.5q-12 12 -16.5 25.5t1.5 19.5l121 121q6 6 19.5 1.5t26 -17t16.5 -25.5t-2 -20l-63 -63h281q18 0 30.5 -12.5t12.5 -30t-12.5 -30t-30.5 -12.5zM853 363v-22h-6q-12 -21 -36.5 -21t-36.5 21h-6v77q-128 -55 -341.5 -55
t-341.5 55v-162h28q24 -18 114.5 -30.5t209.5 -12.5q27 0 54 1v-1q17 0 29.5 -12.5t12.5 -30t-12.5 -30t-29.5 -12.5q-5 0 -11 2q-33 -2 -53 -2q-214 0 -342 56v-184h-85v768h2q12 54 134.5 91t290 37t290 -37t135.5 -91h1v-11v0v-394zM768 757q0 22 -97 38t-234 16
t-233.5 -16t-96.5 -38t96.5 -37.5t233.5 -15.5t234 15.5t97 37.5zM768 674q-128 -55 -341 -55t-342 55v-183h28q24 -19 114.5 -31t209.5 -12t210 12t114 31h7v183zM437 -43q27 0 54 1v-1q17 0 29.5 -12t12.5 -30t-12.5 -30.5t-29.5 -12.5q-5 0 -11 2q-33 -2 -53 -2
q-168 0 -290.5 37t-134.5 91h111q24 -18 114.5 -30.5t209.5 -12.5zM619 85h344q17 0 29.5 -12.5t12.5 -29.5v-1q13 -12 17.5 -25.5t-2.5 -19.5l-122 -121q-6 -7 -19.5 -2.5t-26 17t-17 26t1.5 19.5l64 64h-282q-18 0 -30.5 12.5t-12.5 30t12.5 30t30.5 12.5z" />
    <glyph glyph-name="uniE67E" unicode="&#xe67e;" 
d="M229 606q0 67 38 123q36 54 96 83q30 15 68 19q36 4 75 -13q100 -45 134 -152q26 -82 -19 -158q-41 -68 -112 -101q-55 -25 -111 -10q-97 25 -144 107q-25 46 -25 102zM490 342q7 0 15 -1q17 -4 12 -19q-4 -15 -12 -27q-26 -45 -36 -76q-23 -66 -14 -130q1 -11 5 -30
t4 -22q1 -7 2 -12q0 -15 -14 -18q-12 -2 -25 -3q-45 -1 -116 5q-17 2 -49 4.5t-40 3.5q-15 1 -44.5 4t-44.5 4q-25 2 -53 11q-16 5 -21 13.5t-1 25.5q4 19 17 57q29 89 38 112q30 78 112 94q19 3 51 4q6 0 98 2q0 -1 116 -2zM686 -64v37q0 3 -3 4q-5 2 -29 12q-1 1 -6 3
q-18 -19 -26 -28q-13 -13 -30 -4q-2 1 -5 4l-31 31q-11 11 -7 24q2 5 7 10q5 6 26 26q2 1 1 4q-4 9 -14 33q-2 2 -4 2h-36q-18 0 -24 18l-2 10v44q0 16 13 25q5 3 11 3h13h13h12q2 0 4 2q1 4 5 14t7 15q0 2 3 7h-2v1q-11 11 -26 24q-18 17 -1 35l32 32q17 17 34 0
q15 -16 25 -27q2 -1 4 0t33 14q3 1 3 4v11v13v11q-1 19 18 25q5 1 10 1h44q16 0 24 -13q3 -5 3 -11v-37q0 -3 3 -4q6 -3 18 -8t17 -7l1 -1l1 2q8 9 25 26q13 14 29 5q2 -1 5 -4l16 -16l15 -15q11 -11 7 -25q-2 -4 -7 -10q-5 -5 -14 -13.5t-12 -11.5q-1 -2 -1 -4
q9 -19 14 -33q2 -3 5 -3h17h18q18 1 24 -18q2 -4 2 -10v-43q0 -17 -13 -25q-5 -3 -11 -3h-12h-14h-12q-2 0 -4 -3q-8 -20 -11 -28q-1 -1 -2 -3.5t-2 -4.5q2 0 2 -1q5 -4 13.5 -12t12.5 -12q7 -7 8 -16.5t-6 -16.5q-15 -17 -34 -35q-16 -15 -33 2t-25 26q-2 1 -4 1
q-7 -3 -19 -8t-14 -6q-3 -1 -3 -5v-18v-17zM840 144q0 43 -30.5 74t-73.5 31q-44 0 -74.5 -31t-30.5 -74t30.5 -74t74 -31t74 31t30.5 74zM840 144z" />
    <glyph glyph-name="uniE686" unicode="&#xe686;" 
d="M512 800q-52 0 -92 -2.5t-82.5 -8.5t-72.5 -18.5t-55 -30.5t-37.5 -46t-12.5 -65v-426q0 -63 43.5 -106.5t105.5 -43.5l-53 -53v-32h512v32l-53 53q62 0 105.5 43.5t43.5 106.5v426q0 37 -12.5 65t-37.5 46t-55 30.5t-72.5 18.5t-82.5 8.5t-92 2.5zM320 128
q-27 0 -45.5 18.5t-18.5 45.5t18.5 45.5t45.5 18.5t45.5 -18.5t18.5 -45.5t-18.5 -45.5t-45.5 -18.5zM480 416h-224v192h224v-192zM704 128q-27 0 -45.5 18.5t-18.5 45.5t18.5 45.5t45.5 18.5t45.5 -18.5t18.5 -45.5t-18.5 -45.5t-45.5 -18.5zM768 416h-224v192h224v-192z
" />
    <glyph glyph-name="uniE689" unicode="&#xe689;" horiz-adv-x="1025" 
d="M733.5 177q-31.5 0 -54 -22.5t-22.5 -54t22.5 -54.5t54 -23t53.5 23t22 54.5t-22 54t-53.5 22.5zM733.5 43q-23.5 0 -40.5 16.5t-17 40.5t17 41t40.5 17t40 -17t16.5 -41t-16.5 -40.5t-40 -16.5zM895 208h-167q40 0 73 -29t33 -67q0 -5 3.5 -8.5t8.5 -3.5h52q5 0 8.5 4
t3.5 9v80q0 5 -5 10t-10 5zM288 224v261q0 11 -10 21t-20 10h-122q-14 0 -26 -8.5t-19 -22.5q-46 -92 -61 -138v-139h-15q-5 0 -10 -6t-5 -12v-77q0 -13 16 -13h23q5 0 8.5 3.5t3.5 8.5q0 38 31 67t70 29t69.5 -29t30.5 -67q0 -5 4 -8.5t9 -3.5h355q6 0 9.5 3.5t3.5 8.5
q0 38 28.5 67t66.5 29h-425q-10 0 -12.5 2.5t-2.5 13.5zM236 331h-160v26l27 68q2 4 4.5 9.5t12.5 15t21 9.5h95v-128zM151.5 177q-31.5 0 -53.5 -22.5t-22 -54t22 -54.5t53.5 -23t54 23t22.5 54.5t-22.5 54t-54 22.5zM151.5 43q-23.5 0 -40 16.5t-16.5 40.5t16.5 41t40 17
t40.5 -17t17 -41t-17 -40.5t-40.5 -16.5zM1017 430l-65 69q31 41 31 91q0 64 -46 109.5t-110.5 45.5t-110.5 -45.5t-46 -109t46 -109t111 -45.5q33 0 64 14l70 -73q7 -7 17 -7.5t17 6.5l21 20q8 7 8 17t-7 17zM826.5 475q-48.5 0 -83 34t-34.5 81.5t34.5 81.5t83 34t83 -34
t34.5 -81.5t-34.5 -81.5t-83 -34zM884 400v-100q0 -11 -8 -18.5t-19 -7.5h-483q-10 0 -18 7.5t-8 18.5v318q0 10 8 18t18 8h258q4 14 10 26h-267q-22 0 -37.5 -15.5t-15.5 -37.5v-322q0 -21 15.5 -36.5t37.5 -15.5h482q22 0 37.5 15.5t15.5 36.5v114q-13 -5 -26 -9z" />
    <glyph glyph-name="uniE696" unicode="&#xe696;" horiz-adv-x="1025" 
d="M420 -30v6v179q0 4 2 8q2 6 6.5 17t7.5 17q0 2 14 37h543q4 -15 16 -41.5t13 -29.5q2 -4 2 -7v-181v-5h-21v-93h-123v93h-315v-93h-123v93h-22zM605 34h5h222q5 0 5 5v79q0 7 -6 7h-220h-6v-91zM505 68q16 0 28 11.5t12 28.5t-12 29t-28.5 12t-28.5 -12t-12 -29t12 -28.5
t29 -11.5zM930.5 68q16.5 0 28.5 11.5t12 28.5t-11.5 29t-28.5 12t-29 -12t-12 -29t12 -28.5t28.5 -11.5zM309 707v7v94q0 32 19 54.5t50 27.5q4 1 9 1h111q28 0 50.5 -19t27.5 -47q1 -8 1 -18v-94v-6h6h76q20 0 35.5 -13.5t17.5 -32.5q3 -21 -10.5 -38.5t-34.5 -21.5
q-5 -1 -9 -1h-430q-21 0 -37 16t-17 37t15 37t38 17h76h6zM443 744q20 0 34.5 14t14.5 34t-14.5 34.5t-34.5 14.5t-34 -14.5t-14 -34.5t14 -34t34 -14zM399 -50v-64h-6h-272q-45 0 -78.5 28.5t-41.5 73.5q-1 7 -1 18v714q0 45 30 80.5t75 42.5q7 2 13 2h84q12 0 20.5 -8
t10.5 -20q2 -11 -4 -21t-17 -13q-6 -2 -12 -2h-38h-39q-23 0 -41 -17.5t-18 -41.5v-2v-715q0 -19 12 -34t31 -20q6 -1 14 -1h271h7zM447 241q1 6 6.5 30.5t8.5 38.5l16 76q2 6 8 6h64h407q6 0 7 -6q6 -28 30 -142q1 0 1 -3h-13h-36q-5 0 -6 4q-3 11 -9 40.5t-10 46.5
q-1 7 -8 7q-195 -1 -383 0q-8 0 -9 -8q-3 -14 -9 -42.5t-9 -42.5q-1 -5 -7 -5h-44h-5zM888 447h-63v6v269q0 26 -16.5 42.5t-42.5 16.5h-77q-20 0 -29 18q-8 18 4 34q10 12 24 12h85q48 -2 81.5 -36.5t34.5 -83.5v-273q0 -1 -1 -3v-2zM517 505q-21 -5 -27 -6q-35 -8 -46 -41
q-2 -5 -5 -15.5t-5 -15.5q-5 -15 -15 -22q-4 -3 -9 -3q-94 -1 -184 -1q-21 0 -35.5 12t-18.5 31q-4 23 11 42t39 20h60h228h6q0 -1 1 -1z" />
    <glyph glyph-name="uniE6A2" unicode="&#xe6a2;" 
d="M834 180v38q0 65 -45.5 110.5t-109.5 45.5h-145v146q48 8 79.5 45.5t31.5 86.5q0 55 -39 94t-94 39t-94 -39t-39 -94q0 -49 31.5 -86.5t79.5 -45.5v-146h-145q-64 0 -109.5 -45.5t-45.5 -110.5v-38q-34 -7 -56 -34.5t-22 -62.5q0 -41 29.5 -70.5t70.5 -29.5t70.5 29.5
t29.5 70.5q0 35 -22 62.5t-56 34.5v38q0 46 32.5 78.5t78.5 32.5h145v-149q-34 -7 -56 -34.5t-22 -62.5q0 -41 29.5 -70.5t70.5 -29.5t70.5 29.5t29.5 70.5q0 35 -22 62.5t-56 34.5v149h145q46 0 78.5 -32.5t32.5 -78.5v-38q-34 -7 -56 -34.5t-22 -62.5q0 -41 29.5 -70.5
t70.5 -29.5t70.5 29.5t29.5 70.5q0 35 -22 62.5t-56 34.5z" />
    <glyph glyph-name="uniE6AC" unicode="&#xe6ac;" 
d="M1024 341v-145q0 -48 -70 -48h-47q-8 -51 -47 -90.5t-89 -39.5q-49 0 -88 41t-47 92h-248q-8 -51 -47 -92t-88 -41q-50 0 -89 39.5t-47 90.5h-47q-70 0 -70 48v145v9v9q0 73 52 125t125 53q36 94 135.5 153.5t226.5 59.5q129 0 230.5 -62.5t134.5 -160.5q53 -18 86.5 -64
t33.5 -104v-9v-9zM697 128q4 -11 12 -21v-1l4 -4v-1q3 -2 4 -4h1q3 -4 7 -7h1l1 -1q1 -1 3 -2t3 -2q2 -1 3.5 -1.5t3.5 -1.5h1l2 -2q3 -1 7 -2q1 -1 2 -1q2 -1 5 -1q1 0 2 -1h6q1 -1 2 -1h7h8q1 0 3 1h5q2 1 3 1q2 0 5 1v1h2l6 2l3 2q2 1 3.5 1.5t3.5 1.5q1 1 3 2t3 2
q1 0 2 1q4 3 8 7v0l4 4l1 1q2 2 3 4v1q8 9 12 21q6 15 6 30q0 45 -47 68q-4 2 -8 3h-1q-3 1 -5 2t-4 1t-3 1q-3 0 -6 1h-2h-8h-7h-1q-3 -1 -7 -1q-1 -1 -2 -1q-3 0 -5 -1t-5 -2h-1q-4 -1 -7 -3q-47 -23 -47 -68q0 -15 5 -30zM175 125q4 -11 12 -21v-1q1 -2 3 -4q1 0 1 -1
l4 -4v0q4 -4 8 -7l1 -1h1q1 -1 3 -2q1 -1 3 -2l3 -2q1 0 3.5 -1.5t3.5 -1.5l6 -2q1 0 1 -1h1q3 -1 5 -1q1 0 3 -1h5q2 -1 3 -1h7h8l1 1h1h6q1 1 2 1q3 0 5 1q1 0 1.5 0.5t1.5 0.5l6 2l2 1q3 2 4.5 2.5t3.5 1.5q1 1 3 2t3 2t2 1q4 3 7 7h1q1 2 4 4v1l4 4v1q8 10 12 21
q5 15 5 30q0 45 -47 68q-3 2 -7 3h-1q-3 1 -5 2t-5 1q-1 0 -2 1q-4 0 -7 1h-1h-8h-7h-2q-3 -1 -6 -1q-1 -1 -3 -1t-4.5 -1t-4.5 -2h-1q-4 -1 -8 -3q-47 -23 -47 -68q0 -15 6 -30zM231 537h277v162q-95 -7 -169.5 -51t-107.5 -111zM546 700v-163h300q-35 71 -116.5 116
t-183.5 47zM831 486l-629 3q-62 0 -105.5 -39.5t-45.5 -99.5v-126q0 -7 5.5 -12.5t12.5 -5.5h62q18 35 51 57.5t70.5 22.5t70.5 -22.5t51 -57.5h276q18 35 51 57.5t70 22.5q39 0 71.5 -19.5t50.5 -53.5h62q7 0 12.5 5.5t5.5 12.5v116q-2 61 -41.5 100t-100.5 39zM831 486z
" />
    <glyph glyph-name="uniE6BC" unicode="&#xe6bc;" 
d="M719 532q-43 20 -109 20q-110 0 -187 -77t-77 -186.5t77 -187t186.5 -77.5t186.5 77.5t77 187t-77 186.5q-41 41 -77 57zM769 129q-66 -66 -159.5 -66t-159.5 66t-66 159t66 159t159.5 66t159.5 -65.5t66 -159t-66 -159.5zM506 430l-20 -53q-4 -8 -11 -9h-10v-46h19v-180
h46v219q0 7 4 15l22 54h-50zM679 432h-49v-42h-88v-41h89v-56h-75v-146h162q30 2 34 33v113h-72v56h75v41h-76v42zM604 182v73h101v-61q-3 -11 -11 -12h-90zM749 39q2 -15 12 -25.5t23 -10.5h54q15 0 25 13t10 31v131q-38 -91 -124 -139zM876 541h-71q-5 0 -9 -3l-33 130
q-7 50 -33 76t-63 26h-308q-40 0 -65 -28t-32 -74l-33 -131q-5 4 -9 4h-72q-8 0 -14 -7.5t-6 -17.5v-21q0 -11 6 -18t14 -7l27 -6q-13 -32 -13 -72l-10 -142v-13v-8v-182q0 -18 10 -31t25 -13h54q15 0 25.5 13t10.5 31v65h106q-41 52 -55 117q-16 -12 -35 -12
q-24 0 -40.5 17t-16.5 40.5t16.5 40.5t40.5 17q16 0 30 -8q6 44 27.5 91t46.5 80h-45q-22 0 -48 17t-27 39l9 44q22 118 39 122h376q7 -1 16.5 -38.5t15.5 -75.5l7 -37l4 -22q75 -40 116 -114q-3 18 -10 34l26 6q9 0 14.5 7t5.5 18v21q0 10 -5.5 17.5t-14.5 7.5z" />
    <glyph glyph-name="uniE6D3" unicode="&#xe6d3;" 
d="M100 -28v924h-100v-1024h1024v100h-924zM574 501l150 -150l214 213l86 -84v242h-248l90 -88l-142 -142l-150 150l-335 -335l71 -70zM574 501z" />
    <glyph glyph-name="uniE6DE" unicode="&#xe6de;" 
d="M766 381q2 16 2 28q0 28 -5.5 33.5t-26.5 5.5h-151q23 38 23 74q0 21 -12 41t-28.5 36t-33.5 31.5t-29 33t-12 34.5q0 11 2.5 21t8.5 26t8 23q-40 -11 -67.5 -46t-27.5 -77q0 -27 11.5 -47.5t28.5 -33.5t33.5 -25t28 -28t11.5 -36q0 -5 -2 -14.5t-2 -12.5h-112q2 10 2 19
q0 15 -12 30t-26.5 25.5t-27 24t-12.5 25.5q0 19 7 42q-22 -8 -39.5 -29t-17.5 -44q0 -18 10 -32t23 -21.5t25 -18t16 -21.5h-202q-21 0 -26.5 -5.5t-5.5 -33.5q0 -34 14 -94t43 -128q19 -46 43.5 -83t40 -53.5t38.5 -36.5v1q16 -15 39 -15h204q23 0 39 15v-1q38 33 63 66
q15 -6 31 -10q25 -6 49 -6q75 0 122 52q42 46 42 108q0 58 -37 102t-93 55zM732 128q-26 0 -44 8q15 31 23 50q28 67 44 132q33 -7 55 -33.5t22 -60.5q0 -38 -27 -67t-73 -29z" />
    <glyph glyph-name="uniE6E7" unicode="&#xe6e7;" 
d="M694 -128h-364q-90 0 -166 44t-120 120t-44 166v364q0 90 44 166t120 120t166 44h364q90 0 166 -44t120 -120t44 -166v-364q0 -90 -44 -166t-120 -120t-166 -44zM330 844q-115 0 -196.5 -81.5t-81.5 -196.5v-364q0 -115 81.5 -196.5t196.5 -81.5h364q115 0 196.5 81.5
t81.5 196.5v364q0 115 -81.5 196.5t-196.5 81.5h-364zM919 146v-64h-765v64h59q-11 43 -61 240q-25 -7 -27 -8q-11 -3 -20.5 3t-12 16.5t3 20.5t16.5 13q3 1 9 2.5t9 3.5q23 7 36 -6v5q7 120 8 135q1 22 14 39.5t34 23.5q44 12 127 35.5t103 29.5q4 1 89 25h15l2 -1
q30 -6 47 -33q7 -12 65 -106l3 -3l1 -2q7 13 18 16q19 6 29 8q15 4 25 -7t7 -25q-4 -16 -19 -21q-2 -1 -27 -8q23 -94 47 -186q-132 -37 -474 -134q27 -41 1 -76h517q-34 8 -48.5 33t-11.5 51q4 28 24 46t47 18q25 0 45 -18t24 -44q4 -27 -10.5 -52.5t-47.5 -33.5h99z
M622 547l-1 2q-48 85 -55 96q-8 14 -22.5 20t-29.5 2q-131 -37 -243 -69q-16 -4 -26 -18t-10 -32q-1 -27 -1 -106v-5q52 15 184 52t204 58zM630 408q18 0 30 12.5t12 30.5q0 16 -11.5 28t-28.5 12t-29.5 -12.5t-12.5 -29.5t12 -29t28 -12zM261 304q17 0 29.5 12.5t11.5 29.5
q0 17 -11.5 29t-27.5 12q-18 0 -30 -12.5t-12 -30.5q0 -17 11.5 -28.5t28.5 -11.5z" />
    <glyph glyph-name="uniE6E8" unicode="&#xe6e8;" 
d="M549 804q0 12 -8.5 20t-21.5 8q-12 0 -21 -8t-9 -20v-76h60v76zM911 560q9 6 12 17t-3 22q-8 13 -23 15q-11 0 -16 -3l-50 -38l29 -50zM305 666l52 28l-39 65q-9 13 -24 15q-9 0 -17 -4q-10 -7 -13 -18t3 -21zM773 731q6 10 3 21.5t-15 17.5q-11 5 -23 2t-18 -13l-39 -64
l53 -29zM209 572l-68 38q-5 3 -11 3q-20 2 -29 -14q-7 -11 -4 -22t14 -18l68 -38zM525.5 623q-117.5 0 -201 -76.5t-83.5 -184.5v-306h568v306q0 108 -83 184.5t-200.5 76.5zM749 115h-448v260q0 50 34 94.5t85.5 69.5t105 25t105 -25t85 -69.5t33.5 -94.5v-260zM914 -4
h-777q-6 0 -10.5 -4.5t-4.5 -10.5v-30q0 -6 4.5 -10.5t10.5 -4.5h777q6 0 10.5 4.5t4.5 10.5v30q0 6 -4.5 10.5t-10.5 4.5zM638 455h-215q-15 0 -25.5 -10.5t-10.5 -25.5v-214q0 -15 10.5 -25.5t25.5 -10.5v-18q0 -15 10.5 -25.5t25.5 -10.5t25.5 10.5t10.5 25.5v18h71v-18
q0 -15 10.5 -25.5t25.5 -10.5t25.5 10.5t10.5 25.5v18q14 0 24.5 10.5t10.5 25.5v214q0 15 -10.5 25.5t-24.5 10.5zM468 151q0 -9 -9 -9t-9 9v18h18v-18zM611 151q0 -9 -9 -9t-9 9v18h18v-18zM647 205q0 -9 -9 -9h-215q-9 0 -9 9v35h233v-35zM647 267h-233v98h233v-98z
M647 392h-233v27q0 9 9 9h215q9 0 9 -9v-27zM477 231h-27v-26h27v26zM611 231h-27v-26h27v26zM495 401h71v18h-71v-18z" />
    <glyph glyph-name="uniE6EF" unicode="&#xe6ef;" 
d="M878 105l-201 299q-38 60 -38 140v186q0 23 15 54l15 30q3 12 -1.5 14.5t-28.5 2.5h-254q-25 0 -30.5 -2.5t-2.5 -14.5q1 -1 16 -31.5t15 -53.5v-185q0 -76 -40 -140l-99 -153l-98 -146q-18 -28 -18 -65q0 -46 30.5 -75.5t95.5 -29.5h516q66 0 96 29.5t30 75.5
q0 37 -18 65zM818 14q-15 -15 -49 -15h-515q-34 0 -50 15q-12 12 -12 27q0 16 8 28l198 301q49 79 49 174v223h128v-223q0 -98 48 -174l201 -300q8 -13 8 -28t-14 -28zM778 73l-163 246h-208l-162 -246q-4 -7 -4 -16q0 -12 8 -20t19 -8h488q11 0 19 8.5t8 19.5q0 9 -5 16z
M604 213q-5 4 -5 11q0 6 5 11t11 5q7 0 11 -5q5 -4 5 -11q0 -6 -5 -11q-4 -5 -11 -5q-6 0 -11 5zM698 95q-4 -3 -9 -3q-8 0 -13 7l-47 72q-4 6 -2.5 12.5t7.5 9.5q4 3 8 3q9 0 13 -7l47 -72q4 -6 2.5 -12.5t-6.5 -9.5z" />
    <glyph glyph-name="uniE703" unicode="&#xe703;" 
d="M820 832h-104q-12 0 -12 -12v-11q-20 -20 -36 -20q-10 0 -25.5 17.5t-26.5 19.5q-34 6 -76 6q-100 0 -204 -43q-66 -28 -104.5 -79t-39.5 -84q-1 -29 10 -29q4 -1 10 7q18 25 52 55.5t63 33.5q81 9 128 -34q25 -23 33.5 -52.5t8.5 -94.5l-13 -4q-14 -4 -14 -18v-141
q0 -84 -5.5 -184t-11.5 -159l-5 -58q0 -12 12 -12h168q12 0 12 12q-22 212 -22 401v141q0 14 -14 18l-16 4q0 50 0.5 66t3 35t9.5 31q9 17 27.5 31.5t31.5 18.5q21 7 44 -13v-29q0 -12 12 -12h104q12 0 12 12v168q0 12 -12 12z" />
    <glyph glyph-name="uniE722" unicode="&#xe722;" 
d="M646 -122q-26 0 -42 18t-43.5 36.5t-50.5 18.5q-24 0 -51 -18.5t-43 -35.5q-16 -18 -42 -18q-11 0 -21 5h-1l-110 61l-1 1q-15 11 -20 29t2 35q10 22 10 44q0 48 -34 82t-82 34h-4h-1q-13 0 -23.5 11.5t-14.5 30.5q-9 50 -9 88t9 87q4 19 14.5 30.5t24.5 11.5h4
q48 0 82 34t34 82q0 22 -10 45q-7 16 -2 34.5t20 28.5l1 1l116 63l1 1q10 4 21 4q26 0 42 -17t42.5 -34.5t49.5 -17.5t49.5 17t42.5 34t41 17q12 0 22 -5h1l112 -62l1 -1q15 -10 20 -28.5t-2 -35.5q-10 -22 -10 -44q0 -48 34 -82t82 -34h4q14 0 24.5 -11.5t14.5 -30.5
q9 -49 9 -87q0 -39 -9 -88q-4 -19 -14.5 -30.5t-24.5 -11.5h-4q-48 0 -82 -34t-34 -82q0 -21 10 -44q7 -17 2 -35t-20 -29l-1 -1l-114 -62l-1 -1q-10 -4 -21 -4zM643 -69h3l106 58q-14 33 -14 65q0 68 46.5 116.5t113.5 52.5q8 45 8 76.5t-8 76.5q-67 4 -113.5 53t-46.5 116
q0 32 14 65l-104 58h-1q-2 0 -4 -1q-16 -17 -38 -32q-49 -35 -91 -35t-91 35q-22 16 -39 33q-1 1 -4 1l-108 -59q14 -33 14 -65q0 -67 -46.5 -116t-113.5 -53q-8 -45 -8 -76.5t8 -76.5q67 -4 113.5 -52.5t46.5 -116.5q0 -32 -14 -65l102 -57q2 0 4 1q16 18 39 34
q49 36 93 36q43 0 93 -36q23 -18 40 -36zM510 145q-64 0 -109.5 45.5t-45.5 109.5t45.5 109.5t109.5 45.5t109.5 -45.5t45.5 -109.5t-45.5 -109.5t-109.5 -45.5zM510 402q-42 0 -72 -30t-30 -72t30 -72t72 -30t72 30t30 72t-30 72t-72 30zM510 402z" />
    <glyph glyph-name="uniE724" unicode="&#xe724;" 
d="M392 129q-15 41 -56 54q-13 4 -27 4t-27 -4q-41 -13 -57 -54q-3 -8 -4 -17q-2 -8 -2 -15l1 -2q0 -37 26 -62.5t62.5 -25.5t62.5 25.5t27 62.5v1v1q0 7 -1 15q-2 9 -5 17zM925 212v128q0 27 -7 53t-15.5 42.5t-20 30.5t-16.5 19t-8 7q-5 4 -10 4h-137q-8 0 -13 -6v-282
q0 -4 -3 -8h-1v-1q-3 -3 -7 -3h-325q11 -5 19 -13q26 -22 35 -54q3 -8 4 -17q1 -8 1 -15v-1v-1h249v1v1q0 7 1 15q2 9 4 17q9 32 35 54h1h-1q12 11 27 17q11 5 22 8q12 2 23.5 2t22.5 -2q12 -3 23 -8q15 -7 27 -17q25 -22 35 -54q2 -8 3 -17q1 -8 1 -15v-2h19q7 0 12 5t5 12
v88q0 7 -5 12zM866 129q-16 41 -57 54q-13 4 -27 4t-27 -4q-41 -13 -56 -54q-3 -8 -5 -17q-1 -8 -1 -15v-1v-1q1 -37 27 -62.5t62.5 -25.5t62.5 25.5t27 62.5v1v1q0 7 -2 15q-1 9 -4 17zM659 218v1h17v326v2v50q0 8 -5 13t-12 5h-229q9 -31 9 -63q0 -89 -63 -152t-152 -63
q-62 0 -114 33v-151h17v-1h532zM236 183q9 8 19 13q3 2 8 4h1v1h-120v-1v-88q0 -7 5 -12t12 -5h36v1v1q0 7 1 15q1 9 4 17q9 32 34 54zM142 418l20 21q5 -3 16 -7t12 -4v-30q0 -7 6 -12t13 -5h34q8 0 14 5t6 12v30q1 0 11.5 4t15.5 7l21 -21q12 -12 24 0l24 24q5 5 5 12.5
t-5 12.5l-21 20q3 5 7 15.5t4 11.5h30q7 0 12 6t5 14v34q0 7 -5 13t-12 6h-30q0 1 -4 12t-7 16l21 21q12 11 0 23l-24 24q-5 5 -12.5 5t-12.5 -5l-20 -21q-5 3 -15.5 7.5t-11.5 4.5v30q0 7 -6 12t-14 5h-34q-7 0 -13 -5t-6 -12v-30q-1 0 -12 -4.5t-16 -7.5l-20 21
q-12 12 -24 0l-24 -24q-5 -5 -5 -12t5 -12l21 -20q-3 -5 -7 -16t-5 -12h-30q-7 0 -12 -6t-5 -13v-34q0 -8 5 -14t12 -6h30q1 -1 5 -11.5t7 -15.5l-21 -21q-12 -12 0 -24l24 -24q5 -5 12 -5t12 5zM226 628q32 0 54.5 -22.5t22.5 -54.5t-22.5 -54.5t-54.5 -22.5t-54.5 22.5
t-22.5 54.5t22.5 54.5t54.5 22.5z" />
    <glyph glyph-name="uniE730" unicode="&#xe730;" 
d="M512 800q26 0 45 -18.5t19 -45t-19 -45.5t-45 -19t-45 19t-19 45.5t19 45t45 18.5zM512 832q-40 0 -68 -28t-28 -68t28 -68t68 -28t68 28t28 68t-28 68t-68 28zM848 608h-672q-20 0 -34 -14t-14 -34t14 -34t34 -14h201q23 0 34 -29t-1 -103l-8 -43v0l-64 -345
q-4 -19 7.5 -35.5t31.5 -19.5q4 -1 8 -1q17 0 30 11t16 29l41 240v-1q1 3 2 7t4.5 15t8 19t11 15t13.5 7h2q11 0 20 -15.5t12 -31.5l3 -16l43 -239q3 -18 16.5 -29t30.5 -11q5 0 9 1q20 3 31.5 19.5t7.5 35.5l-65 345v0l-7 43q-12 74 -1 103q5 14 15 21.5t19 7.5h201
q20 0 34 14t14 34t-14 34t-34 14zM176 544q-7 0 -11.5 4.5t-4.5 11.5t4.5 11.5t11.5 4.5h672q7 0 11.5 -4.5t4.5 -11.5t-4.5 -11.5t-11.5 -4.5h-203q-21 0 -38 -15.5t-24 -32.5q-14 -37 -1 -121v-1l7 -38l1 -6l65 -344q1 -6 -3 -11.5t-10 -6.5h-3q-14 0 -16 12l-42 240h-1
q-2 16 -10 38q-6 17 -15 30q-17 22 -42 22h-2q-24 0 -42 -22q-9 -12 -16 -29q-7 -19 -11 -38h-1l-41 -240q-2 -13 -15 -13h-3q-6 1 -10 6.5t-3 11.5l65 343v1v1l8 43v1q13 84 -1 121q-7 18 -23 33t-40 15h-202z" />
    <glyph glyph-name="uniE73B" unicode="&#xe73b;" 
d="M374 623q0 -41 -29 -70.5t-70 -29.5t-70 29.5t-29 70.5t29 70.5t70 29.5t70 -29.5t29 -70.5zM664.5 181q-62.5 0 -106.5 -44.5t-44 -107.5t44 -107.5t106.5 -44.5t106.5 44.5t44 107.5t-44 107.5t-106.5 44.5zM664.5 -41q-28.5 0 -49 20.5t-20.5 49.5t20.5 49.5t49 20.5
t49 -20.5t20.5 -49.5t-20.5 -49.5t-49 -20.5zM706 419q-3 9 -36.5 47t-76.5 79.5t-86.5 68.5t-61.5 15q-16 -10 -17.5 -26t5.5 -26l6 -10q62 -16 191 -161q12 -13 11 -13l-212 -82q-4 -3 -21 -11t-25.5 -14.5t-17 -26.5t-8.5 -50v-120q0 -28 27.5 -54t55.5 -26h35
q-1 0 -1 23q0 79 55 135t133 56t133 -56.5t55 -135.5q0 -22 -1 -22h111v511zM413 210q-10 24 -2 40t29 24.5t42.5 13t38.5 5.5l17 2zM456 400q-4 3 -12 6t-34 3t-54 -13q-27 -9 -40.5 -3t-26.5 26.5t-21.5 42t-26.5 43t-42 29.5q-4 0 -10 -0.5t-23 -8.5t-32 -22t-32.5 -45
t-28.5 -72q-1 -4 -2.5 -11.5t-4.5 -31t-2.5 -48t6.5 -61t18 -71.5v-219q2 -3 5.5 -7.5t15 -12.5t23.5 -11t30.5 4t37.5 27v222q0 5 0.5 15t3 36.5t7 49.5t15 48.5t24.5 40.5q1 -2 2 -5.5t8 -11.5t16.5 -14t28.5 -10.5t44 -3.5l61 13q108 31 46 76z" />
    <glyph glyph-name="uniE75D" unicode="&#xe75d;" 
d="M65 -127h-64v1022h64v-1022v0zM129 830q9 2 24 4.5t58.5 9.5t84.5 12.5t92 9.5t89.5 3t69 -8.5t38.5 -22.5q13 -27 12.5 -52t-6 -43.5t3 -30.5t38.5 -14q61 -4 158.5 11t164.5 31l67 17v-590q-90 -51 -193 -77t-186 -15q-32 3 -46 13t-13.5 23t3.5 29.5t6 34t-6 35.5
q-9 19 -40 27.5t-70 7t-90 -9.5t-91.5 -17.5t-84.5 -21t-59 -16t-24 -7.5v657v0z" />
    <glyph glyph-name="uniE762" unicode="&#xe762;" 
d="M896 350v65l-67 17l-5 26l55 42l-24 59l-69 -9l-15 21l36 59l-46 46l-60 -35l-21 14l10 70l-59 25l-43 -57l-25 6l-17 69h-64l-18 -70l-24 -5l-43 58l-60 -24l10 -72l-23 -14l-63 37l-45 -45l37 -63l-13 -21l-71 10l-24 -59l57 -43l-4 -25l-70 -18v-64l69 -18l5 -25
l-57 -42l25 -59l70 10l14 -23l-36 -61l46 -45l60 36l22 -14l-9 -69l60 -24l41 55l27 -5l17 -66h64l17 66l27 5l41 -54l59 25l-10 67l21 15l58 -34l45 45l-34 58l16 23l68 -10l24 59l-54 41l5 27zM839 254l-5 -13l-64 9l-38 -56l32 -54l-11 -10l-54 32l-54 -37l10 -63l-13 -6
l-40 51l-65 -13l-16 -62h-14l-17 62l-65 13l-39 -52l-14 5l9 65l-55 37l-57 -35l-11 10l34 58l-36 55l-66 -9l-6 13l54 41l-12 63l-66 17v15l66 17l12 63l-54 41l5 13l68 -10l35 54l-36 60l10 10l41 -25l19 -11l56 37l-9 67l13 6l41 -55l63 12l17 67h14l17 -66l63 -13l41 54
l13 -6l-10 -66l54 -36l57 32l10 -10l-33 -56l36 -54l65 9l6 -13l-52 -40l13 -65l62 -16v-14l-63 -17l-13 -65zM512 640q-106 0 -181 -75t-75 -181t75 -181t181 -75t181 75t75 181t-75 181t-181 75zM288 384q0 93 65.5 158.5t158.5 65.5q22 0 44 -4l-55 -208l-209 -56
q-4 22 -4 44zM512 160q-93 0 -158 66q-36 35 -53 83l207 55l150 -150q-63 -54 -146 -54zM680 236l-150 150l56 209q48 -16 84 -53q66 -65 66 -158q0 -85 -56 -148z" />
    <glyph glyph-name="uniE763" unicode="&#xe763;" 
d="M326 754h158v-53h-158v53zM247 648h26q11 0 19 8t8 19v105q0 11 -8 19t-19 8h-26q-11 0 -18.5 -8t-7.5 -19v-105q0 -11 7.5 -19t18.5 -8zM695 698v-260h53v297q0 8 -7.5 13.5t-18.5 5.5h-106v-38h53q11 0 18.5 -5.5t7.5 -12.5zM537 648h27q10 0 18 8t8 19v105q0 11 -8 19
t-18 8h-27q-11 0 -18.5 -8t-7.5 -19v-105q0 -11 7.5 -19t18.5 -8zM115 94v581q0 11 7.5 18.5t18.5 7.5h53v53h-105q-11 0 -19 -7.5t-8 -18.5v-686q0 -11 8 -19t19 -8h316v53h-264q-11 0 -18.5 7.5t-7.5 18.5zM207 437h396q6 0 9.5 4t3.5 10v26q0 5 -3.5 9t-9.5 4h-396
q-5 0 -9 -4t-4 -9v-26q0 -6 4 -10t9 -4zM200 279q-6 0 -6 -13v-26q0 -14 6 -14h166q6 0 6 14v26q0 13 -6 13h-166zM517 105zM958 216q-14 37 -47 33q-3 0 -7.5 4.5t-5.5 8.5q-19 47 -36 98q-11 31 -42 40q-6 2 -82 18q-59 9 -121 0q-44 -7 -47 -8q-70 -13 -86 -70
q-5 -21 -27 -79q-2 -4 -5.5 -8t-6.5 -4q-20 3 -30.5 -7t-17.5 -30q-1 -5 0 -14q22 -6 30 -8q-1 -109 -1 -125q-1 -54 0 -67q2 -25 10 -31q3 -4 42.5 -4t49.5 4q3 1 5.5 10t5 23.5t4.5 21.5h272q2 -4 2.5 -25.5t12.5 -29.5q4 -3 45.5 -2.5t44.5 4.5q3 2 6 11t3 16q1 57 1 158
q0 3 -5 35q31 9 33 9q2 11 0 18zM565 121q-4 -10 -18 -13q-11 -3 -30 -3q-41 4 -44 5q-26 6 -18 43q5 21 29 14q33 -11 70 -29q4 -1 8 -7.5t3 -9.5zM493 240q33 93 39 109q5 11 21 15q38 9 58 9q72 -1 175 -5q36 -2 46 -39q2 -6 29 -89q-180 -38 -368 0zM885 111
q-3 -1 -44 -6q-36 3 -38 4q-11 2 -13.5 11.5t7.5 14.5q36 17 84 32q9 3 14.5 -3t5.5 -16q3 -10 0.5 -22t-16.5 -15z" />
    <glyph glyph-name="uniE771" unicode="&#xe771;" 
d="M894 384q-39 45 -75.5 79.5t-85.5 70t-105.5 55t-115.5 19.5q-98 0 -194 -60q-78 -49 -188 -162l-2 -2l13 -14l48 -48q16 -16 45 -42.5t48 -40t48.5 -31.5t55.5 -26.5t58.5 -15t67.5 -6.5q109 0 216 73q63 42 157 137l11 11zM512 576q101 0 194 -61q70 -46 148 -132
q-31 -31 -51.5 -50.5t-58 -49.5t-70 -47t-76 -30.5t-86.5 -13.5q-103 0 -188 56q-57 37 -153 136q97 98 175 145t166 47zM512 224q66 0 113 47t47 113t-47 113t-113 47t-113 -47t-47 -113t47 -113t113 -47zM512 511q53 0 90.5 -37t37.5 -90t-37.5 -90t-90.5 -37t-90.5 37
t-37.5 90t37.5 90t90.5 37zM576 384q0 -26 -19 -45t-45 -19t-45 19.5t-19 45.5t19.5 44.5t44.5 18.5v32q-40 0 -68 -28t-28 -68t28 -68.5t68 -28.5t68 28.5t28 68.5h-32z" />
    <glyph glyph-name="uniE778" unicode="&#xe778;" 
d="M464 896h95q1 -1 3 -1h5q7 0 14 -1h6q4 0 6 -0.5t6.5 -0.5t6.5 -1h3h3q3 0 9 -0.5t9 -1.5q6 -1 19 -2.5t19 -2.5t17.5 -3t17.5 -3q53 -12 71 -18q4 -1 10 -3t8 -2q26 -9 51 -21q23 -12 28 -15q3 -3 9 -6.5t9 -5.5q1 -1 2.5 -2t3.5 -2.5t2 -2.5q27 -21 38 -45q9 -22 6 -37
l-1 -2v-3q-3 -12 -5 -16q-9 -24 -33 -43q-1 -1 -5 -4t-4 -4q-10 -7 -20 -13l-21 -12q-24 -11 -30 -14q-7 -3 -28 -10q-9 -3 -46 -14q-3 -1 -10 -2.5t-11 -2.5q-5 -1 -6 -2q-4 0 -13 -2t-14 -3q-1 -1 -13 -3t-19 -2q-3 -1 -10 -2q-5 -1 -14.5 -2t-13.5 -1q-5 -1 -7.5 -1
t-8 -0.5t-8.5 -1.5h-6q-8 -1 -16 -1q-2 0 -5 -1h-12q-11 -1 -16 -1h-33h-13h-12q-17 0 -21 1h-15q-3 1 -20.5 2t-26.5 2q-7 1 -12 1q-6 1 -20 3l-21 3q-2 1 -5.5 1t-4.5 1q-7 1 -20.5 3.5t-20.5 4.5q-64 16 -87 26q-2 1 -10.5 4t-13.5 5q-77 36 -101 83l-4 12v2q-1 3 -2 4v8
q0 18 3 24q1 2 2 6t2 6q2 3 6 10q12 18 23 27q2 1 6.5 5t7.5 6t7.5 5.5t6.5 4.5q9 6 26 15q1 0 3.5 1.5t3.5 1.5q0 1 18 8q5 3 28 11q15 6 19 7q3 1 10 3t11 3q22 6 27 7q2 0 6 1l6 2q2 0 39 7q2 1 7.5 1.5t8.5 0.5q5 2 16 3t16 2q2 0 4.5 0.5t3.5 0.5q2 0 7.5 0.5t7.5 0.5
h3l2 1h5h6q2 1 7 1h8q5 1 19 2zM82 638h1q3 -17 26 -34q40 -30 105 -51q25 -8 27 -9q3 -1 8 -2t7 -2t5.5 -1.5t4.5 -0.5q4 -1 11.5 -3t11.5 -3q1 -1 3 -1h4q3 -1 8.5 -2.5t8.5 -1.5q6 -1 17 -3t17 -3q7 -2 21.5 -3.5t20.5 -3.5q3 0 9 -0.5t9 -0.5q1 0 2.5 -0.5t2.5 -0.5
q3 0 9 -0.5t9 -1.5q6 0 17 -0.5t16 -1.5h8h7h6h5q1 -1 24 -1q22 0 24 0.5t5 0.5h6h7h8l13 1h4q2 1 7 1t7 1q28 2 41 4q3 0 10.5 1t10.5 1q4 1 16.5 3t18.5 3q2 1 9 2q6 1 17 3t17 4q4 1 25 6.5t32 8.5q25 7 46 16q1 1 3 1l3 1q7 3 18 8q1 1 3 1.5t3 1.5q32 16 46 27
q16 12 23 24l3 5v2q0 3 1 4h1v-23v-45v-140v-38q0 -18 -1 -22q-3 -17 -13 -31q0 -1 -1 -3t-2 -3q-6 -6 -11 -13q-3 -3 -5 -4q-6 -6 -12 -11q-29 -21 -50 -30q-1 -1 -2 -1.5t-2.5 -1.5t-2.5 -1q-4 -2 -11 -5t-10 -4q-5 -3 -29 -11q-30 -10 -55 -16q-9 -2 -69 -13
q-7 -1 -21.5 -3t-16.5 -2h-3h-2q-4 -1 -13.5 -1.5t-13.5 -1.5q-2 0 -7 -0.5t-7 -0.5q-3 -1 -9 -1h-9q-5 0 -13.5 -0.5t-12.5 -0.5h-26h-25l-20 1h-6q-6 1 -18 1.5t-17 1.5h-5h-5q-6 1 -19.5 2.5t-19.5 2.5q-2 0 -6 0.5t-6 0.5q-5 1 -15.5 2.5t-15.5 2.5q-70 16 -83 20
q-3 1 -13.5 4t-15.5 6q-6 2 -17.5 6.5t-16.5 7.5q-3 1 -12 6q-3 1 -7.5 3.5t-5.5 2.5q-7 4 -22 14q-22 15 -30 25l-2 3q-2 1 -3 1q-12 16 -16 25q-3 6 -5 13q-1 6 -2 6v83q1 62 0 186zM82 299h1q3 -17 26 -34q40 -30 105 -51q26 -8 27 -9q3 0 8 -1.5t7 -2.5q2 0 5.5 -1
t4.5 -1q3 -1 11 -3l12 -3q1 0 3.5 -0.5t3.5 -0.5q2 -1 8 -2t9 -2q6 -1 17 -3t17 -3q7 -2 21.5 -3.5t20.5 -2.5q3 -1 9 -1.5t9 -0.5h3h2q3 -1 9 -1.5t9 -0.5q22 -2 33 -2q3 -1 8 -1h7h6h5h24h24h5h6q2 1 7 1h8q9 0 13 1h4h7q5 0 7 1q18 2 41 4q3 1 10.5 1.5t11 1t16 2.5
t18.5 4q3 0 9 1t17 3.5t17 3.5q3 1 24.5 6.5t32.5 8.5q25 8 46 16q1 1 3 1.5t3 1.5q6 2 18 8q1 0 3 0.5t3 1.5q32 17 46 27q16 12 23 25q2 4 2.5 4.5t0.5 1.5q0 4 1 4q0 1 1 0v-22v-46v-139v-38q0 -19 -1 -23q-3 -17 -13 -31q0 -1 -1 -3t-2 -3q-6 -6 -11 -13q-3 -2 -5 -4
q-6 -6 -12 -11q-29 -21 -50 -30q-1 -1 -7 -4q-4 -2 -11.5 -5t-9.5 -4q-7 -3 -29 -10q-30 -10 -55 -16q-14 -4 -69 -14q-35 -4 -38 -5h-5q-4 -1 -13.5 -1.5t-13.5 -1.5h-7q-5 0 -7 -1h-9q-6 0 -9 -1h-12h-14q-3 -1 -26 -1q-22 0 -25 1h-20h-2h-4q-5 1 -17.5 1.5t-17.5 1.5h-5
h-5q-6 2 -19.5 3t-19.5 2q-5 1 -12 1q-16 3 -31 6q-71 15 -83 19q-4 2 -14 5t-15 5q-27 11 -34 14q-3 1 -12 6q-2 1 -6.5 3t-6.5 3q-7 4 -22 14q-22 15 -30 25l-5 5q-12 16 -16 24q-3 6 -5 13q-1 6 -2 7v82q1 62 0 186z" />
    <glyph glyph-name="uniE790" unicode="&#xe790;" 
d="M789 214q-44 0 -75.5 -31.5t-31.5 -75.5t31.5 -75.5t75.5 -31.5t75.5 31.5t31.5 75.5t-31.5 75.5t-75.5 31.5zM789 32q-31 0 -53 22t-22 53t22 53t53 22t53 -22t22 -53t-22 -53t-53 -22zM512 214q-44 0 -75.5 -31.5t-31.5 -75.5t31.5 -75.5t75.5 -31.5t75.5 31.5
t31.5 75.5t-31.5 75.5t-75.5 31.5zM512 32q-31 0 -53 22t-22 53t22 53t53 22t53 -22t22 -53t-22 -53t-53 -22zM235 214q-44 0 -75.5 -31.5t-31.5 -75.5t31.5 -75.5t75.5 -31.5t75.5 31.5t31.5 75.5t-31.5 75.5t-75.5 31.5zM235 32q-31 0 -53 22t-22 53t22 53t53 22t53 -22
t22 -53t-22 -53t-53 -22zM789 491q-44 0 -75.5 -31.5t-31.5 -75.5t31.5 -75.5t75.5 -31.5t75.5 31.5t31.5 75.5t-31.5 75.5t-75.5 31.5zM789 309q-31 0 -53 22t-22 53t22 53t53 22t53 -22t22 -53t-22 -53t-53 -22zM512 491q-44 0 -75.5 -31.5t-31.5 -75.5t31.5 -75.5
t75.5 -31.5t75.5 31.5t31.5 75.5t-31.5 75.5t-75.5 31.5zM512 309q-31 0 -53 22t-22 53t22 53t53 22t53 -22t22 -53t-22 -53t-53 -22zM235 491q-44 0 -75.5 -31.5t-31.5 -75.5t31.5 -75.5t75.5 -31.5t75.5 31.5t31.5 75.5t-31.5 75.5t-75.5 31.5zM235 309q-31 0 -53 22
t-22 53t22 53t53 22t53 -22t22 -53t-22 -53t-53 -22zM789 554q44 0 75.5 31.5t31.5 75.5t-31.5 75.5t-75.5 31.5t-75.5 -31.5t-31.5 -75.5t31.5 -75.5t75.5 -31.5zM789 736q31 0 53 -22t22 -53t-22 -53t-53 -22t-53 22t-22 53t22 53t53 22zM512 768q-44 0 -75.5 -31.5
t-31.5 -75.5t31.5 -75.5t75.5 -31.5t75.5 31.5t31.5 75.5t-31.5 75.5t-75.5 31.5zM512 586q-31 0 -53 22t-22 53t22 53t53 22t53 -22t22 -53t-22 -53t-53 -22zM235 768q-44 0 -75.5 -31.5t-31.5 -75.5t31.5 -75.5t75.5 -31.5t75.5 31.5t31.5 75.5t-31.5 75.5t-75.5 31.5z
M235 586q-31 0 -53 22t-22 53t22 53t53 22t53 -22t22 -53t-22 -53t-53 -22z" />
    <glyph glyph-name="uniE792" unicode="&#xe792;" 
d="M800 550q0 116 -85.5 199t-202.5 83t-202.5 -83t-85.5 -199q0 -81 60 -166q4 -6 19.5 -26.5t25 -34t18.5 -29t16 -32t10.5 -31.5t6 -28t3.5 -26t1.5 -20.5t0 -16t-0.5 -9.5v-3h256v3v11v16q0 7 1 20t3.5 25.5t6 27.5t10.5 31t16 32t18.5 29.5t25 34t19.5 26.5
q60 85 60 166zM702 387q-1 -1 -2 -3l-1 -1q-33 -45 -50 -73q-39 -68 -41 -150h-32v224l64 128h-33l-63 -128v-224h-64v224l-63 128h-33l64 -128v-224h-32q-2 82 -42 150q-15 26 -27 42l-37 51q-54 74 -54 147q0 98 79 177q74 74 177 74t177 -74q79 -79 79 -177
q0 -73 -54 -147zM448 -32h128v-32h-128v32zM416 32h192v-32h-192v32zM416 96h192v-32h-192v32z" />
    <glyph glyph-name="uniE794" unicode="&#xe794;" 
d="M864 736v-704h-704v704h704zM896 768h-768v-768h768v768zM384 592h384v-32h-384v32zM384 400h384v-32h-384v32zM384 208h384v-32h-384v32zM288 576zM256 576q0 13 9.5 22.5t22.5 9.5t22.5 -9.5t9.5 -22.5t-9.5 -22.5t-22.5 -9.5t-22.5 9.5t-9.5 22.5zM288 384zM256 384
q0 13 9.5 22.5t22.5 9.5t22.5 -9.5t9.5 -22.5t-9.5 -22.5t-22.5 -9.5t-22.5 9.5t-9.5 22.5zM288 192zM256 192q0 13 9.5 22.5t22.5 9.5t22.5 -9.5t9.5 -22.5t-9.5 -22.5t-22.5 -9.5t-22.5 9.5t-9.5 22.5z" />
    <glyph glyph-name="uniE796" unicode="&#xe796;" 
d="M512 800q106 0 181 -75t75 -181q0 -131 -139 -371q-30 -52 -60.5 -98.5t-56.5 -83.5q-64 90 -116 181q-140 241 -140 372q0 106 75 181t181 75zM512 832q-119 0 -203.5 -84.5t-84.5 -203.5q0 -63 29.5 -148.5t72 -163t85 -146t71.5 -109.5l30 -41q12 16 31.5 43t69 105.5
t87.5 150t69 159t31 150.5q0 119 -84.5 203.5t-203.5 84.5zM512 672q-53 0 -90.5 -37.5t-37.5 -90.5t37.5 -90.5t90.5 -37.5t90.5 37.5t37.5 90.5t-37.5 90.5t-90.5 37.5zM512 450q-39 0 -66.5 27.5t-27.5 66.5t27.5 66.5t66.5 27.5t66.5 -27.5t27.5 -66.5t-27.5 -66.5
t-66.5 -27.5z" />
    <glyph glyph-name="uniE797" unicode="&#xe797;" 
d="M719 736q-62 0 -119.5 -27.5t-87.5 -78.5q-30 51 -87.5 78.5t-119.5 27.5q-106 0 -173.5 -62.5t-67.5 -169.5q0 -50 20.5 -106.5t61.5 -104.5q47 -56 85 -90.5t115 -85.5q49 -32 92 -53.5t55.5 -26t18.5 -5.5q6 1 18.5 5.5t55.5 26t92 53.5q77 51 115 85.5t85 90.5
q41 48 61.5 104.5t20.5 106.5q0 107 -67.5 169.5t-173.5 62.5zM854 314q-46 -55 -82 -87.5t-112 -82.5q-89 -59 -148 -79q-59 20 -148 79q-76 50 -112 82.5t-82 87.5q-37 44 -56 98q-18 48 -18 92q0 93 59 147q27 26 65 39q39 14 85 14q57 0 106 -24.5t74 -65.5l27 -46
l27 46q25 41 74 65.5t106 24.5q46 0 85 -14q38 -13 65 -39q59 -54 59 -147q0 -44 -18 -92q-19 -54 -56 -98z" />
    <glyph glyph-name="uniE79A" unicode="&#xe79a;" 
d="M512 800q-172 0 -294 -122t-122 -294t122 -294t294 -122t294 122t122 294t-122 294t-294 122zM512 3q-103 0 -191 51t-139 139t-51 191t51 191t139 139t191 51t191 -51t139 -139t51 -191t-51 -191t-139 -139t-191 -51zM519 604q-134 0 -135 -124h38q-2 93 95 93
q36 0 61 -22.5t25 -57.5q0 -40 -39 -76q-34 -31 -46.5 -58.5t-13.5 -70.5h38q1 42 7.5 58.5t38.5 47.5q26 24 39 47t13 54q0 50 -35 79.5t-86 29.5zM520.5 231q-14.5 0 -24 -9.5t-9.5 -23.5t10 -24t24 -10t24 10t10 24t-10 23.5t-24.5 9.5z" />
    <glyph glyph-name="uniE79B" unicode="&#xe79b;" 
d="M512 672l-320 -256v-416h224v256h192v-256h224v416zM512 768l-192 -154v90h-128v-192l-64 -51l23 -23l361 289l361 -289l23 23z" />
    <glyph glyph-name="uniE7A7" unicode="&#xe7a7;" 
d="M595 267q-65 33 -136 33q-100 0 -182 -62.5t-106 -156.5v-69h360v144l79 103q-7 4 -15 8zM459 588zM243 587.5q0 89.5 63.5 153t153 63.5t152.5 -63.5t63 -153t-63 -152.5t-152.5 -63t-153 63t-63.5 152.5zM750 357l34 42l112 -91l-34 -42zM567 119l1 -101l105 15
l174 215l-112 90z" />
    <glyph glyph-name="uniE7BB" unicode="&#xe7bb;" 
d="M698 226zM698 226q-13 5 -41 10t-42 10q-25 8 -27.5 15t-3.5 30q-1 11 -1 23q0 3 7.5 11t8.5 9q9 15 13 63q5 -2 9 0.5t6 7.5t3.5 10t2.5 11t2 8q2 4 3.5 11t2.5 17t-1.5 15.5t-9.5 3.5q5 10 8 29q8 48 -2 79q-12 38 -45 60t-74 23q-42 1 -77 -18.5t-50 -57.5
q-11 -30 -5 -79q3 -24 9 -36q-7 2 -9.5 -3t-1.5 -13.5t2 -15t2 -11.5q1 -2 2.5 -8.5t3 -12t3.5 -11t6 -8.5t10 -1q3 -32 7 -49q4 -13 17 -28q5 -6 5 -9q0 -35 -4 -48q-4 -15 -51 -24q-3 -1 -20 -4.5t-22.5 -5t-18 -5t-21 -8t-17.5 -11.5q-53 -39 -53 -109h500h56
q0 44 -25 80t-67 50zM287 251l3 2l-2 -1q-1 0 -1 -1zM287 251l1 1l2 1q14 6 43 9q10 1 4 10q-4 4 -13 7t-20 5.5t-15 4.5q-9 3 -9 13q-2 21 0 22q1 1 4.5 1.5t7.5 0.5h6q19 2 33 8q8 3 13 7q2 3 1.5 4.5t-3.5 6.5t-3 6q-10 20 -11 48q-1 9 -0.5 48t-2.5 48q-7 36 -32.5 55
t-62.5 19q-53 0 -76 -36q-18 -29 -16 -97q1 -39 -2 -56q-2 -13 -5 -24q-1 -1 -4.5 -7.5t-5 -9.5t0.5 -6q24 -17 64 -14q2 -25 -1 -32q-2 -6 -13.5 -10.5t-27.5 -7.5t-19 -4q-27 -9 -44 -30t-17 -50h110h49q1 0 4.5 4.5t6.5 10t4 7.5q21 23 49 37zM899 272q-5 2 -19 4.5
t-24.5 6.5t-15.5 10q-4 5 -2 33q8 -1 27 2q14 2 24 6q7 2 11 4q2 2 3 3.5t1 2t-1.5 3t-2.5 4.5q-10 16 -13 35t-1.5 50t1.5 38q-2 65 -40 89q-20 12 -48 13.5t-50 -8.5q-29 -11 -41.5 -38.5t-11.5 -55t0 -62.5t-10 -55q-2 -2 -4.5 -6.5t-2.5 -5.5t1 -3.5t6 -5.5q9 -4 22 -7
q18 -5 36 -5q1 -1 0.5 -13t-1 -15t-3 -5t-6.5 -3.5t-7.5 -2.5t-8 -2t-6.5 -2q-1 0 -6.5 -1t-8 -2t-6 -3t-5.5 -5q-2 -6 2.5 -8.5t13.5 -2.5h11q26 -5 54 -28q29 -23 33 -39h160q0 29 -17 50t-44 30z" />
    <glyph glyph-name="uniE7BC" unicode="&#xe7bc;" 
d="M512 672zM698 226q-13 5 -41 10t-42 10q-25 8 -27.5 15t-3.5 30q-1 11 -1 23q0 3 7.5 11t8.5 9q9 15 13 63q5 -2 9 0.5t6 7.5t3.5 10t2.5 11t2 8q2 4 3.5 11t2.5 17t-1.5 15.5t-9.5 3.5q5 10 8 29q8 48 -2 79q-12 38 -45 60t-74 23q-42 1 -77 -18.5t-50 -57.5
q-11 -30 -5 -79q3 -24 9 -36q-7 2 -9.5 -3t-1.5 -13.5t2 -15t2 -11.5q1 -2 2.5 -8.5t3 -12t3.5 -11t6 -8.5t10 -1q3 -32 7 -49q4 -13 17 -28q5 -6 5 -9q0 -35 -4 -48q-4 -15 -51 -24q-3 -1 -20 -4.5t-22.5 -5t-18 -5t-21 -8t-17.5 -11.5q-53 -39 -53 -109h500h56
q0 44 -25 80t-67 50zM294 169q19 19 41 28q12 4 35 7.5t32 5.5q38 10 54 25q13 12 15 47q1 11 1 42q0 4 -3 8t-7.5 8t-6.5 7q-7 9 -11 45q-2 15 -6 19q-11 9 -14 15q-2 6 -4.5 17t-3.5 15q-1 3 0 6.5t4 7.5t3 6q2 7 1.5 11.5t-3.5 13.5t-3 13q-11 62 18 94q23 26 61 30.5
t70.5 -14t40.5 -54.5q6 -32 -5 -72q-5 -18 0 -26q5 -14 4.5 -18t-4.5 -19q-4 -16 -16 -26q-4 -3 -5.5 -8t-2 -14t-1.5 -10q-3 -24 -9 -32q-1 -2 -5.5 -6t-8 -7.5t-3.5 -5.5q0 -50 3 -66q1 -6 3 -11t4 -8.5t6.5 -7t7 -5.5t9 -5t8.5 -4t10 -4.5t9 -3.5q12 -5 40.5 -8.5
t42.5 -10.5q48 -24 59 -66h-476h-8q5 20 24 41zM288 252q14 7 45 10q11 1 4 10q-4 5 -13 8t-20 5t-14 4q-9 3 -10 13q-1 21 0 22t5 1.5t8 0.5h5q19 2 34 8q7 3 13 7q1 3 0.5 5t-3.5 6.5t-3 5.5q-9 20 -11 48q-1 9 0 48t-3 48q-7 36 -32.5 55t-62.5 19q-53 0 -76 -36
q-18 -29 -16 -97q1 -39 -1 -56q-2 -13 -6 -23q-1 -2 -4.5 -8t-5 -9.5t0.5 -6.5q24 -17 64 -14q2 -24 -1 -31q-2 -7 -13.5 -11.5t-27.5 -7.5t-19 -4q-27 -9 -44 -30.5t-17 -49.5h110h49q1 0 4.5 4.5t6.5 10t4 7.5q22 24 50 38zM206 224h-98q6 11 18 16t30 8.5t25 5.5
q35 13 38 44q0 5 -0.5 32t-1.5 27q-45 1 -53 3q7 24 6 67t2 68q8 51 59 51q52 0 62 -47q5 -20 4 -70t7 -70q-11 -3 -34 -3q-3 0 -8.5 -0.5t-8.5 -0.5q-2 0 -2 -9q-1 -3 -2 -14t-1.5 -17t0 -15.5t3 -16t7.5 -11.5q-36 -23 -52 -48zM800 192h160q0 28 -17 49.5t-44 30.5
q-5 2 -19 4.5t-24.5 6.5t-15.5 10q-4 5 -2 33q8 -1 27 2q14 2 24 6q7 2 11 4q2 2 3 3.5t1 2t-1.5 3t-2.5 4.5q-10 16 -13 35t-1.5 50t1.5 38q-2 65 -40 89q-20 12 -48 13.5t-50 -8.5q-29 -11 -41.5 -38.5t-11.5 -55t0 -62.5t-10 -55q-2 -2 -4.5 -6.5t-2.5 -5.5t1 -3.5
t6 -5.5q9 -4 22 -7q18 -5 36 -5q1 -1 0.5 -13t-1 -15t-3 -5t-6.5 -3.5t-7.5 -2.5t-8 -2t-6.5 -2q-1 0 -6.5 -1t-8 -2t-6 -3t-5.5 -5q-2 -6 2.5 -8.5t13.5 -2.5h11q26 -5 54 -28t33 -39zM799 246q-19 18 -33 26q5 5 8 12t3 16v15q0 6 -1.5 17t-1.5 14l-2 6q0 2 -1.5 3t-2.5 1
h-5h-6q-29 1 -37 3q8 25 7.5 68t2.5 68q8 51 63 51q49 0 58 -46q5 -21 3.5 -70t5.5 -70q-6 -1 -51 -2q-3 -1 -4 -26.5t0 -28.5q2 -33 35 -47q7 -3 25.5 -6.5t31.5 -8.5t19 -16h-55h-34q-6 0 -10.5 2.5t-9.5 9t-8 9.5z" />
    <glyph glyph-name="uniE7BF" unicode="&#xe7bf;" 
d="M704 691v1v1v1q-2 5 -7 6l-4 1l-181 39v-545q-25 0 -89 -3q-103 -4 -103 -82q0 -40 28 -62.5t95 -19.5q22 1 38.5 7.5t27.5 15t18.5 23.5t11 26.5t5.5 31.5t2 30v30v385l147 -27q5 -1 8 2.5t3 7.5v129v1v1z" />
    <glyph glyph-name="uniE7C0" unicode="&#xe7c0;" 
d="M832 256v484l-448 -69v-475q-22 0 -87 -2q-105 -4 -105 -83q0 -41 28 -63.5t97 -19.5q21 1 37.5 7t27 14t18 22.5t11 25t5 29.5t2 29t0.5 30v8v323l382 64v-321q-20 0 -85 -2q-105 -4 -105 -83q0 -41 27.5 -63.5t96.5 -19.5q21 1 37 7t26 13.5t17 21t10.5 24t5.5 29
t2 28.5v29v13z" />
    <glyph glyph-name="uniE7CA" unicode="&#xe7ca;" 
d="M838 164.5q-1 1.5 -3 1.5l-26 4q-2 6 -6 13q3 4 8 10t7 9q1 2 1 3q0 2 -1 3q-5 7 -23 24q-2 1 -4 1t-3 -1l-20 -15q-6 3 -13 5l-4 25q0 3 -2 4t-3 1h-32q-4 0 -5 -4q-2 -7 -4 -26q-7 -2 -13 -5l-20 15q-2 1 -4 1q-3 0 -13 -10t-14 -15q-1 -1 -1 -3q0 -1 1 -3
q10 -11 15 -19q-3 -6 -5 -13l-27 -4q-2 0 -3 -1q-1 -2 -1 -3v-31q0 -1 1 -3t3 -2l26 -4q2 -6 6 -13q-2 -4 -7 -10t-8 -9q-1 -2 -1 -3.5t1 -2.5q6 -8 24 -24q1 -1 3.5 -1t3.5 1l20 15q6 -3 13 -5l4 -25q0 -2 1.5 -3.5t3.5 -1.5h32q4 0 5 4q2 7 4 26q7 2 13 5l19 -15
q2 -1 4 -1q3 0 13.5 9.5t14.5 15.5q1 1 1 3t-1 3q-11 12 -16 19q3 5 6 13l26 4q2 0 3 1.5t1 2.5v31q0 2 -1 3.5zM755.5 121q-10.5 -10 -25.5 -10t-26 10t-11 25t11 25t26 10t25.5 -10t10.5 -25t-10.5 -25zM294 611q0 71 51.5 121t124 50t124 -50t51.5 -121t-51.5 -121
t-124 -50t-124 50t-51.5 121zM672 339q-30 26 -66 44q-62 -36 -136.5 -36t-136.5 36q-71 -35 -113.5 -98.5t-42.5 -139.5v-34q1 -3 4.5 -7.5t23 -17t48 -21.5t86 -17t130.5 -8q55 0 101 4q-27 48 -27 102q0 64 35.5 116t93.5 77z" />
    <glyph glyph-name="uniE7CF" unicode="&#xe7cf;" 
d="M865 672h-65v96h-576v-96h-63q-27 0 -46 -18.5t-19 -44.5v-316q0 -27 19.5 -46t45.5 -19h95v-228h512v228h97q26 0 44.5 19t18.5 46v316q0 27 -18.5 45t-44.5 18zM256 736h512v-64h-512v64zM736 32h-448v384h448v-384zM896 293q0 -14 -9 -23.5t-22 -9.5h-97v188h-512
v-188h-95q-13 0 -23 10t-10 23v316q0 13 10 22t23 9h703h1q13 0 22 -9t9 -22v-316z" />
    <glyph glyph-name="uniE7DF" unicode="&#xe7df;" 
d="M897 47l-227 226q67 84 67 191q0 126 -89.5 215t-215 89t-214.5 -89t-89 -215t89 -215.5t215 -89.5q107 0 191 68l226 -227zM240 271q-79 79 -79 192t79.5 193t192 80t192.5 -80q80 -79 80 -192t-80 -193t-192 -80q-113 0 -193 80z" />
    <glyph glyph-name="uniE7E0" unicode="&#xe7e0;" 
d="M689 300q48 75 48 163q0 127 -89.5 216t-215.5 89t-215 -89t-89 -215.5t89 -215.5t215 -89q90 0 166 49l13 9l218 -217l67 69l-217 217zM602.5 633.5q70.5 -70.5 70.5 -170t-70.5 -170t-170 -70.5t-170 70.5t-70.5 170t70.5 170t170 70.5t170 -70.5z" />
    <glyph glyph-name="uniE7E1" unicode="&#xe7e1;" 
d="M704 688q13 0 22.5 -9.5t9.5 -22.5t-9.5 -22.5t-22.5 -9.5t-22.5 9.5t-9.5 22.5t9.5 22.5t22.5 9.5zM704 720q-26 0 -45 -19t-19 -45t19 -45t45 -19t45 19t19 45t-19 45t-45 19zM704 144q13 0 22.5 -9.5t9.5 -22.5t-9.5 -22.5t-22.5 -9.5t-22.5 9.5t-9.5 22.5t9.5 22.5
t22.5 9.5zM704 176q-26 0 -45 -19t-19 -45t19 -45t45 -19t45 19t19 45t-19 45t-45 19zM320 416q13 0 22.5 -9.5t9.5 -22.5t-9.5 -22.5t-22.5 -9.5t-22.5 9.5t-9.5 22.5t9.5 22.5t22.5 9.5zM320 448q-26 0 -45 -19t-19 -45t19 -45t45 -19t45 19t19 45t-19 45t-45 19zM415 400
h545v-32h-545q1 8 1 16t-1 16zM224 384q0 -8 1 -16h-161v32h161q-1 -8 -1 -16zM799 128h161v-32h-161q1 8 1 16t-1 16zM608 112q0 -8 1 -16h-545v32h545q-1 -8 -1 -16zM799 672h161v-32h-161q1 8 1 16t-1 16zM609 672q-1 -8 -1 -16t1 -16h-545v32h545z" />
    <glyph glyph-name="uniE7F9" unicode="&#xe7f9;" 
d="M64 144h567q9 22 29 35t44 13t44 -13t29 -35h183v-64h-183q-9 -22 -29 -35t-44 -13t-44 13t-29 35h-567v64zM64 416h183q9 22 29 35t44 13t44 -13t29 -35h567v-64h-567q-9 -22 -29 -35t-44 -13t-44 13t-29 35h-183v64zM64 688h567q9 22 29 35t44 13t44 -13t29 -35h183
v-64h-183q-9 -22 -29 -35t-44 -13t-44 13t-29 35h-567v64z" />
    <glyph glyph-name="uniE815" unicode="&#xe815;" 
d="M256 256q-40 0 -68 -28t-28 -68t28 -68t68 -28t68 28t28 68t-28 68t-68 28zM767 352h-510q-80 0 -136.5 -56.5t-56.5 -136.5t56.5 -135.5t136.5 -55.5h510q80 0 136.5 55.5t56.5 135.5t-56.5 136.5t-136.5 56.5zM256 32q-53 0 -90.5 37.5t-37.5 90.5t37.5 90.5t90.5 37.5
t90.5 -37.5t37.5 -90.5t-37.5 -90.5t-90.5 -37.5zM768 512q40 0 68 28t28 68t-28 68t-68 28t-68 -28t-28 -68t28 -68t68 -28zM257 416h510q80 0 136.5 55.5t56.5 135.5t-56.5 136.5t-136.5 56.5h-510q-80 0 -136.5 -56.5t-56.5 -136.5t56.5 -135.5t136.5 -55.5zM768 736
q53 0 90.5 -37.5t37.5 -90.5t-37.5 -90.5t-90.5 -37.5t-90.5 37.5t-37.5 90.5t37.5 90.5t90.5 37.5z" />
    <glyph glyph-name="uniE816" unicode="&#xe816;" 
d="M256 256q40 0 68 -28t28 -68t-28 -68t-68 -28t-68 28t-28 68t28 68t68 28zM256 288q-53 0 -90.5 -37.5t-37.5 -90.5t37.5 -90.5t90.5 -37.5t90.5 37.5t37.5 90.5t-37.5 90.5t-90.5 37.5zM766 320q67 0 114.5 -47t47.5 -113.5t-47 -113t-114 -46.5h-510q-67 0 -114 46.5
t-47 112.5q0 67 47 114t114 47h509zM767 352h-510q-80 0 -136.5 -56.5t-56.5 -136.5t56.5 -135.5t136.5 -55.5h510q80 0 136.5 55.5t56.5 135.5t-56.5 136.5t-136.5 56.5zM768 704q40 0 68 -28t28 -68t-28 -68t-68 -28t-68 28t-28 68t28 68t68 28zM768 736
q-53 0 -90.5 -37.5t-37.5 -90.5t37.5 -90.5t90.5 -37.5t90.5 37.5t37.5 90.5t-37.5 90.5t-90.5 37.5zM258 768h509q67 0 114 -47t47 -114q0 -66 -47 -112.5t-114 -46.5h-510q-67 0 -114 46.5t-47 113t47.5 113.5t114.5 47zM257 800q-80 0 -136.5 -56.5t-56.5 -136.5
t56.5 -135.5t136.5 -55.5h510q80 0 136.5 55.5t56.5 135.5t-56.5 136.5t-136.5 56.5h-510z" />
    <glyph glyph-name="uniE817" unicode="&#xe817;" 
d="M640 670v39q0 25 -17 42t-42 17h-139q-24 0 -41 -17t-17 -42v-39h-160v-30h42l47 -581q0 -25 17.5 -42t41.5 -17h282q24 0 41.5 17t17.5 42l46 581h41v30h-160zM414 709q0 13 8 21t21 8h139q12 0 20 -8t8 -21v-39h-196v39zM405 94l-21 482h29l22 -482h-30zM526 94h-28
v482h28v-482zM619 94h-30l22 482h29z" />
    <glyph glyph-name="uniE818" unicode="&#xe818;" 
d="M800 669h-160v40q0 25 -17 42t-42 17h-139q-24 0 -41 -17t-17 -42v-40h-160v-29h42l47 -581q0 -25 17.5 -42t41.5 -17h282q24 0 41.5 17t17.5 42l46 581h41v29zM413 709q0 13 8.5 21.5t20.5 8.5h139q13 0 21.5 -8.5t8.5 -21.5v-40h-198v40zM683 60v-1q0 -13 -8.5 -21.5
t-20.5 -8.5h-282q-12 0 -20.5 8.5t-8.5 21.5v1l-48 580h435zM498 576h28v-482h-28v482zM640 576h-29l-22 -482h30zM413 576h-29l21 -482h30z" />
    <glyph glyph-name="uniE81D" unicode="&#xe81d;" 
d="M307 640h461v-51h-461v51zM307 538h461v-52h-461v52zM307 435h205v-51h-205v51zM307 333h103v-51h-103v51zM307 230h103v-51h-103v51zM973 133v103h-57q-8 32 -20 51l41 41l-72 71l-41 -41q-10 7 -51 21v56h-102v-56q-33 -8 -51 -21l-41 41l-72 -71l41 -41
q-7 -11 -21 -51h-56v-103h56q9 -33 21 -51l-41 -41l72 -72l41 41q10 -7 51 -20v-57h102v57q33 8 51 20l41 -41l72 72l-41 41q7 10 20 51h57zM819 184q0 -42 -30 -72t-72 -30t-72.5 30t-30.5 72.5t30.5 72.5t72.5 30t72 -30t30 -73zM154 845v-154h-103v-102h103v-103h-103
v-102h103v-102h-103v-103h103v-153h307v51h-256v102h51v103h-51v102h51v102h-51v103h51v102h-51v103h614v-308h51v359h-716z" />
    <glyph glyph-name="uniE840" unicode="&#xe840;" 
d="M224 420v-27q0 -98 61 -173.5t155 -99.5q3 0 8 -2q17 -6 24 -25v-118q0 -16 11.5 -27.5t28.5 -11.5t28.5 11.5t11.5 27.5v118q7 20 24 25q5 2 8 2q94 24 155 99.5t61 173.5v27q0 15 -11.5 26.5t-27.5 11.5t-27.5 -11.5t-11.5 -26.5v-27q0 -86 -61 -146
q-63 -60 -149.5 -60t-148.5 60q-61 60 -61 146v27q0 15 -11.5 26.5t-27.5 11.5t-27.5 -11.5t-11.5 -26.5zM358 681v-288q0 -63 45.5 -107t109.5 -44t109.5 44t45.5 107v288q0 62 -45.5 106.5t-109.5 44.5t-109.5 -44.5t-45.5 -106.5z" />
    <glyph glyph-name="uniE843" unicode="&#xe843;" 
d="M64 352l256 -96l32 -320l160 224l224 -224l224 896zM701 61l-189 195l256 352l-384 -308l-165 62l644 345z" />
    <glyph glyph-name="uniE846" unicode="&#xe846;" 
d="M896 0q0 53 -4 80q-7 41 -163 98q-24 9 -58 20q-45 15 -52.5 24.5t-7.5 50.5v14q0 19 4.5 29.5t11.5 16t15.5 27t14.5 56.5q3 18 11.5 31t16.5 49q5 18 0.5 33.5t-4.5 20.5q5 53 6 65q1 14 -3 32.5t-17 40t-32 39t-51 29.5t-72 12t-72 -12t-51 -29.5t-32 -39t-17 -40
t-3 -32.5q1 -13 6 -65q1 -5 -4 -20.5t0 -33.5q9 -36 17 -49t11 -31q6 -36 15 -57t15.5 -26.5t11 -16t4.5 -29.5v-14q1 -41 -6.5 -50.5t-53.5 -24.5q-34 -11 -58 -20q-156 -57 -162 -98q-2 -12 -3.5 -32t-1.5 -34v-14h384h384z" />
    <glyph glyph-name="uniE847" unicode="&#xe847;" 
d="M858 240v102h102v84h-102v102h-84v-102h-102v-84h102v-102h84zM832 0q0 53 -4 80q-7 41 -163 98q-24 9 -58 20q-45 15 -52.5 24.5t-7.5 50.5v14q0 19 4.5 29.5t11.5 16t15.5 27t14.5 56.5q3 18 11.5 31t16.5 49q5 18 0.5 33.5t-4.5 20.5q5 53 6 65q1 14 -3 32.5t-17 40
t-32 39t-51 29.5t-72 12t-72 -12t-51 -29.5t-32 -39t-17 -40t-3 -32.5q1 -13 6 -65q1 -5 -4 -20.5t0 -33.5q9 -36 17 -49t11 -31q6 -36 15 -57t15.5 -26.5t11 -16t4.5 -29.5v-14q1 -41 -6.5 -50.5t-53.5 -24.5q-34 -11 -58 -20q-156 -57 -162 -98q-2 -12 -3.5 -32t-1.5 -34
v-14h384h384z" />
    <glyph glyph-name="uniE848" unicode="&#xe848;" 
d="M851 246q-13 5 -33 12q-34 12 -39.5 19t-5.5 37v9q0 17 12 37.5t18 58.5q2 12 7.5 21t10.5 33q4 13 1 23.5t-3 13.5q0 1 1.5 16t2.5 28t-4.5 29t-17.5 33.5t-36.5 29.5t-56.5 12t-56.5 -12t-36.5 -29.5t-17.5 -33.5t-4.5 -29q1 -10 2 -18t1.5 -15.5t0.5 -10.5
q1 -3 -2 -13.5t0 -23.5q5 -24 10.5 -32.5t7.5 -21.5q7 -38 18.5 -58.5t11.5 -37.5q0 -3 0.5 -11.5t0 -11t-1.5 -8t-4.5 -8.5t-9.5 -7t-14 -9q17 -6 38 -14q16 -6 29.5 -12.5t23.5 -12t18 -12t13.5 -11t10 -11t6.5 -10t4 -10t2.5 -8t0.5 -7.5l1 -6q2 -13 4 -154h195
q0 161 -3 180q-4 27 -106 66zM714 0v61q-1 76 -4 93q-5 35 -137 85q-17 7 -39 15q-44 15 -53 28t-8 55v13q0 16 4 24.5t9.5 13t13 22.5t12.5 49q2 16 9 27.5t14 42.5q5 16 1 30t-4 18q4 37 5 57q2 16 -5 37t-22.5 43.5t-47 38t-73.5 15.5t-73.5 -15.5t-47 -38t-22 -43.5
t-5.5 -37q2 -31 5 -57q1 -4 -3 -18t0 -30q7 -31 14 -42.5t10 -27.5q5 -31 12 -49t12.5 -22.5t10 -13t4.5 -24.5v-13v-25q0 -7 -4 -17.5t-7 -13.5t-16 -11t-24 -12t-38 -14q-8 -3 -12 -5q-131 -50 -137 -85q-2 -11 -3 -49.5t-1 -71.5v-33h325h325z" />
    <glyph glyph-name="uniE84E" unicode="&#xe84e;" 
d="M192 414h640v-64h-640v64zM192 606h640v-64h-640v64zM192 222h640v-64h-640v64z" />
    <glyph glyph-name="uniE84F" unicode="&#xe84f;" 
d="M835 448h-646q-25 0 -43 -18.5t-18 -45.5t18 -45.5t43 -18.5h646q25 0 43 18.5t18 45.5t-18 45.5t-43 18.5zM835 704h-646q-25 0 -43 -18.5t-18 -45.5t18 -45.5t43 -18.5h646q25 0 43 18.5t18 45.5t-18 45.5t-43 18.5zM835 192h-646q-25 0 -43 -18.5t-18 -45.5t18 -45.5
t43 -18.5h646q25 0 43 18.5t18 45.5t-18 45.5t-43 18.5z" />
    <glyph glyph-name="uniE850" unicode="&#xe850;" 
d="M960 832l-896 -384h512v-512z" />
    <glyph glyph-name="uniE851" unicode="&#xe851;" 
d="M896 704q0 53 -37.5 90.5t-90.5 37.5t-90.5 -37.5t-37.5 -90.5q0 -35 17.5 -64.5t46.5 -46.5v-105l-192 -96l-192 96v105q29 17 46.5 46.5t17.5 64.5q0 53 -37.5 90.5t-90.5 37.5t-90.5 -37.5t-37.5 -90.5q0 -35 17.5 -64.5t46.5 -46.5v-185l256 -128v-105
q-29 -17 -46.5 -46.5t-17.5 -64.5q0 -53 37.5 -90.5t90.5 -37.5t90.5 37.5t37.5 90.5q0 35 -17.5 64.5t-46.5 46.5v105l256 128v185q29 17 46.5 46.5t17.5 64.5zM256 768q27 0 45.5 -18.5t18.5 -45.5t-18.5 -45.5t-45.5 -18.5t-45.5 18.5t-18.5 45.5t18.5 45.5t45.5 18.5z
M512 0q-27 0 -45.5 18.5t-18.5 45.5t18.5 45.5t45.5 18.5t45.5 -18.5t18.5 -45.5t-18.5 -45.5t-45.5 -18.5zM768 640q-27 0 -45.5 18.5t-18.5 45.5t18.5 45.5t45.5 18.5t45.5 -18.5t18.5 -45.5t-18.5 -45.5t-45.5 -18.5z" />
    <glyph glyph-name="uniE853" unicode="&#xe853;" 
d="M512 352zM416 352q0 40 28 68t68 28t68 -28t28 -68t-28 -68t-68 -28t-68 28t-28 68zM512 352zM416 352q0 40 28 68t68 28t68 -28t28 -68t-28 -68t-68 -28t-68 28t-28 68zM960 352h-320q0 -35 -17.5 -65t-47.5 -46l156 -273q104 60 166.5 161t62.5 223zM512 480
q34 0 64 -17l161 276q-104 61 -225 61t-226 -61l159 -278q31 19 67 19zM384 352h-320q0 -122 62.5 -223t166.5 -161l156 273q-30 16 -47.5 46t-17.5 65z" />
    <glyph glyph-name="uniE875" unicode="&#xe875;" 
d="M896 96q-1 5 -3 14.5t-10.5 38t-19.5 56t-30.5 65t-43.5 69.5t-58.5 65t-74.5 56t-94 37.5t-114 14.5v160l-320 -288l320 -269v185q57 0 97 -2.5t85 -9.5t79 -20.5t68.5 -36t63.5 -56t55 -79.5z" />
    <glyph glyph-name="uniE876" unicode="&#xe876;" 
d="M609 512v160l-304 -288l304 -268v184q46 0 76 -3.5t64.5 -15t61.5 -33.5t56.5 -59.5t59.5 -92.5q0 6 -1 23.5t-8.5 58.5t-19 82t-36 88t-56.5 82t-83.5 58.5t-113.5 23.5zM95 384l288 -253v117l-164 136l164 157v114z" />
    <glyph glyph-name="uniE8B8" unicode="&#xe8b8;" 
d="M240 224q-46 0 -79 -33t-33 -79t33 -78.5t79 -32.5t79 32.5t33 78.5t-33 79t-79 33zM128 512v-160q160 0 256 -96t96 -256h160q0 103 -41 197.5t-109.5 163.5t-163.5 110t-198 41zM128 768v-160q126 0 239 -47t193.5 -128t128 -194t47.5 -239h160q0 208 -103 385
t-280 280t-385 103z" />
    <glyph glyph-name="uniE8B9" unicode="&#xe8b9;" 
d="M240 224q-46 0 -79 -33t-33 -79t33 -78.5t79 -32.5t79 32.5t33 78.5t-33 79t-79 33zM240 33q-33 0 -56.5 23t-23.5 56t23.5 56.5t56.5 23.5t56.5 -23.5t23.5 -56.5t-23.5 -56t-56.5 -23zM128 512v-160q160 0 256 -96t96 -256h160q0 103 -41 197.5t-109.5 163.5
t-163.5 110t-198 41zM607 32h-96q-9 152 -104 247t-247 104v96q80 -6 153 -37q86 -37 153 -104t104 -153q32 -73 37 -153zM128 768v-160q126 0 239 -47t193.5 -128t128 -194t47.5 -239h160q0 208 -103 385t-280 280t-385 103zM583 455q-84 84 -192.5 131.5t-230.5 53.5v95
q140 -6 267.5 -63.5t221 -151t151 -221t63.5 -267.5h-96q-6 121 -53 230t-131 193z" />
    <glyph glyph-name="uniE8E4" unicode="&#xe8e4;" 
d="M512 704q-120 0 -230 -43.5t-198 -124.5l-20 -19l20 -20l64 -64l19 -18l19 17q67 62 151 94.5t175 32.5t175 -32.5t150 -94.5l20 -17l18 18l65 64l20 20l-21 19q-87 81 -197 124.5t-230 43.5zM795 383q-58 53 -131 81t-151 28h-1h-17q-153 -7 -266 -109l-21 -19l21 -20
l65 -65l18 -18l19 17q79 69 181 69t181 -69l19 -17l18 18l66 65l20 20zM512 64l20 19l105 104l21 21l-23 19q-54 40 -123 40q-39 0 -65 -10t-58 -30l-23 -19l21 -21l106 -104z" />
    <glyph glyph-name="uniE8EC" unicode="&#xe8ec;" 
d="M462 80v607l-190 -175h-208v-256h208zM574 185q66 89 66 199t-66 199l-41 -30q56 -76 56 -169.5t-56 -168.5zM707 93q96 130 96 291t-96 291l-40 -30q86 -117 86 -261t-86 -261zM793 737q116 -157 116 -353t-116 -353l41 -31q126 171 126 384t-126 384z" />
    <glyph glyph-name="uniE8ED" unicode="&#xe8ed;" 
d="M622 81v606l-190 -175h-208v-256h208zM734 185q66 89 66 199t-66 199l-40 -30q55 -76 55 -169t-55 -169z" />
    <glyph glyph-name="uniE8EE" unicode="&#xe8ee;" 
d="M540 81v606l-189 -175h-209v-256h209zM653 185q65 89 65 199t-65 199l-41 -30q55 -76 55 -169t-55 -169zM786 93q96 130 96 291t-96 291l-41 -30q86 -117 86 -261t-86 -261z" />
    <glyph glyph-name="uniE8EF" unicode="&#xe8ef;" 
d="M512 462h-130v-156h130l94 -103v362zM729 776h-1l-1 1q-100 55 -215 55q-122 0 -225 -60t-163 -163t-60 -225q0 -124 63 -228.5t168 -163.5h1l1 -1q101 -55 215 -55q122 0 225 60t163 163t60 225q0 124 -63 228.5t-168 163.5zM788 185l-116 117v-154l39 -39
q-90 -66 -199 -66q-63 0 -122 23q-22 8 -38 17q-82 44 -131.5 124.5t-49.5 176.5q0 109 66 199l70 -71h154l-147 148q90 65 198 65q63 0 123 -23q21 -9 36 -16q83 -44 132.5 -124.5t49.5 -177.5q0 -109 -65 -199z" />
    <glyph glyph-name="uniE8F0" unicode="&#xe8f0;" 
d="M544 512l96 -96l-96 -96l-96 96zM416 384l96 -96l-352 -352l-96 96zM512 832h64v-128h-64v128zM770 597l-45 45l91 91l45 -45zM227 688l45 45l91 -91l-45 -45zM725 190l45 45l91 -91l-45 -45zM832 448h128v-64h-128v64z" />
  </font>
</defs>
</svg>
